<?xml version="1.0" encoding="utf-8" standalone="no"?>
<!DOCTYPE svg PUBLIC "-//W3C//DTD SVG 1.1//EN"
  "http://www.w3.org/Graphics/SVG/1.1/DTD/svg11.dtd">
<svg xmlns:xlink="http://www.w3.org/1999/xlink" width="432pt" height="216pt" viewBox="0 0 432 216" xmlns="http://www.w3.org/2000/svg" version="1.1">
 <metadata>
  <rdf:RDF xmlns:dc="http://purl.org/dc/elements/1.1/" xmlns:cc="http://creativecommons.org/ns#" xmlns:rdf="http://www.w3.org/1999/02/22-rdf-syntax-ns#">
   <cc:Work>
    <dc:type rdf:resource="http://purl.org/dc/dcmitype/StillImage"/>
    <dc:date>2025-03-09T14:06:57.708870</dc:date>
    <dc:format>image/svg+xml</dc:format>
    <dc:creator>
     <cc:Agent>
      <dc:title>Matplotlib v3.9.2, https://matplotlib.org/</dc:title>
     </cc:Agent>
    </dc:creator>
   </cc:Work>
  </rdf:RDF>
 </metadata>
 <defs>
  <style type="text/css">*{stroke-linejoin: round; stroke-linecap: butt}</style>
 </defs>
 <g id="figure_1">
  <g id="patch_1">
   <path d="M 0 216 
L 432 216 
L 432 0 
L 0 0 
z
" style="fill: #ffffff"/>
  </g>
  <g id="axes_1">
   <g id="patch_2">
    <path d="M 51.84 179.28 
L 175.68 179.28 
L 175.68 10.8 
L 51.84 10.8 
z
" style="fill: #ffffff"/>
   </g>
   <g id="PathCollection_1">
    <path d="M 107.13754 174.360431 
C 107.863829 174.360431 108.560468 174.071873 109.074032 173.55831 
C 109.587595 173.044746 109.876153 172.348107 109.876153 171.621818 
C 109.876153 170.89553 109.587595 170.19889 109.074032 169.685327 
C 108.560468 169.171763 107.863829 168.883205 107.13754 168.883205 
C 106.411252 168.883205 105.714612 169.171763 105.201048 169.685327 
C 104.687485 170.19889 104.398927 170.89553 104.398927 171.621818 
C 104.398927 172.348107 104.687485 173.044746 105.201048 173.55831 
C 105.714612 174.071873 106.411252 174.360431 107.13754 174.360431 
z
" clip-path="url(#pf34c1ab278)" style="fill: #1f77b4; stroke: #000000; stroke-width: 0.5"/>
    <path d="M 136.93861 67.811814 
C 137.664898 67.811814 138.361538 67.523257 138.875101 67.009693 
C 139.388665 66.49613 139.677222 65.79949 139.677222 65.073202 
C 139.677222 64.346913 139.388665 63.650274 138.875101 63.13671 
C 138.361538 62.623146 137.664898 62.334589 136.93861 62.334589 
C 136.212321 62.334589 135.515682 62.623146 135.002118 63.13671 
C 134.488554 63.650274 134.199997 64.346913 134.199997 65.073202 
C 134.199997 65.79949 134.488554 66.49613 135.002118 67.009693 
C 135.515682 67.523257 136.212321 67.811814 136.93861 67.811814 
z
" clip-path="url(#pf34c1ab278)" style="fill: #1f77b4; stroke: #000000; stroke-width: 0.5"/>
    <path d="M 170.050909 26.524225 
C 170.777198 26.524225 171.473837 26.235668 171.987401 25.722104 
C 172.500964 25.208541 172.789522 24.511901 172.789522 23.785613 
C 172.789522 23.059324 172.500964 22.362685 171.987401 21.849121 
C 171.473837 21.335557 170.777198 21.047 170.050909 21.047 
C 169.32462 21.047 168.627981 21.335557 168.114417 21.849121 
C 167.600854 22.362685 167.312296 23.059324 167.312296 23.785613 
C 167.312296 24.511901 167.600854 25.208541 168.114417 25.722104 
C 168.627981 26.235668 169.32462 26.524225 170.050909 26.524225 
z
" clip-path="url(#pf34c1ab278)" style="fill: #1f77b4; stroke: #000000; stroke-width: 0.5"/>
   </g>
   <g id="PathCollection_2">
    <path d="M 57.469091 127.745411 
C 58.19538 127.745411 58.892019 127.456854 59.405583 126.94329 
C 59.919146 126.429726 60.207704 125.733087 60.207704 125.006798 
C 60.207704 124.28051 59.919146 123.58387 59.405583 123.070307 
C 58.892019 122.556743 58.19538 122.268186 57.469091 122.268186 
C 56.742802 122.268186 56.046163 122.556743 55.532599 123.070307 
C 55.019036 123.58387 54.730478 124.28051 54.730478 125.006798 
C 54.730478 125.733087 55.019036 126.429726 55.532599 126.94329 
C 56.046163 127.456854 56.742802 127.745411 57.469091 127.745411 
z
" clip-path="url(#pf34c1ab278)" style="fill: #ff7f0e; stroke: #000000; stroke-width: 0.5"/>
    <path d="M 65.747166 65.148099 
C 66.473454 65.148099 67.170094 64.859541 67.683657 64.345978 
C 68.197221 63.832414 68.485779 63.135775 68.485779 62.409486 
C 68.485779 61.683198 68.197221 60.986558 67.683657 60.472994 
C 67.170094 59.959431 66.473454 59.670873 65.747166 59.670873 
C 65.020877 59.670873 64.324238 59.959431 63.810674 60.472994 
C 63.297111 60.986558 63.008553 61.683198 63.008553 62.409486 
C 63.008553 63.135775 63.297111 63.832414 63.810674 64.345978 
C 64.324238 64.859541 65.020877 65.148099 65.747166 65.148099 
z
" clip-path="url(#pf34c1ab278)" style="fill: #ff7f0e; stroke: #000000; stroke-width: 0.5"/>
    <path d="M 74.853048 21.196795 
C 75.579337 21.196795 76.275976 20.908237 76.78954 20.394673 
C 77.303103 19.88111 77.591661 19.18447 77.591661 18.458182 
C 77.591661 17.731893 77.303103 17.035254 76.78954 16.52169 
C 76.275976 16.008127 75.579337 15.719569 74.853048 15.719569 
C 74.12676 15.719569 73.43012 16.008127 72.916556 16.52169 
C 72.402993 17.035254 72.114435 17.731893 72.114435 18.458182 
C 72.114435 19.18447 72.402993 19.88111 72.916556 20.394673 
C 73.43012 20.908237 74.12676 21.196795 74.853048 21.196795 
z
" clip-path="url(#pf34c1ab278)" style="fill: #ff7f0e; stroke: #000000; stroke-width: 0.5"/>
   </g>
   <g id="matplotlib.axis_1">
    <g id="xtick_1">
     <g id="line2d_1">
      <path d="M 78.992086 179.28 
L 78.992086 10.8 
" clip-path="url(#pf34c1ab278)" style="fill: none; stroke-dasharray: 1.85,0.8; stroke-dashoffset: 0; stroke: #b0b0b0; stroke-opacity: 0.7; stroke-width: 0.5"/>
     </g>
     <g id="line2d_2">
      <defs>
       <path id="me48875a301" d="M 0 0 
L 0 3.5 
" style="stroke: #000000; stroke-width: 0.8"/>
      </defs>
      <g>
       <use xlink:href="#me48875a301" x="78.992086" y="179.28" style="stroke: #000000; stroke-width: 0.8"/>
      </g>
     </g>
     <g id="text_1">
      <!-- 25 -->
      <g transform="translate(72.492086 195.306875) scale(0.13 -0.13)">
       <defs>
        <path id="TimesNewRomanPSMT-32" d="M 2934 816 
L 2638 0 
L 138 0 
L 138 116 
Q 1241 1122 1691 1759 
Q 2141 2397 2141 2925 
Q 2141 3328 1894 3587 
Q 1647 3847 1303 3847 
Q 991 3847 742 3664 
Q 494 3481 375 3128 
L 259 3128 
Q 338 3706 661 4015 
Q 984 4325 1469 4325 
Q 1984 4325 2329 3994 
Q 2675 3663 2675 3213 
Q 2675 2891 2525 2569 
Q 2294 2063 1775 1497 
Q 997 647 803 472 
L 1909 472 
Q 2247 472 2383 497 
Q 2519 522 2628 598 
Q 2738 675 2819 816 
L 2934 816 
z
" transform="scale(0.015625)"/>
        <path id="TimesNewRomanPSMT-35" d="M 2778 4238 
L 2534 3706 
L 1259 3706 
L 981 3138 
Q 1809 3016 2294 2522 
Q 2709 2097 2709 1522 
Q 2709 1188 2573 903 
Q 2438 619 2231 419 
Q 2025 219 1772 97 
Q 1413 -75 1034 -75 
Q 653 -75 479 54 
Q 306 184 306 341 
Q 306 428 378 495 
Q 450 563 559 563 
Q 641 563 702 538 
Q 763 513 909 409 
Q 1144 247 1384 247 
Q 1750 247 2026 523 
Q 2303 800 2303 1197 
Q 2303 1581 2056 1914 
Q 1809 2247 1375 2428 
Q 1034 2569 447 2591 
L 1259 4238 
L 2778 4238 
z
" transform="scale(0.015625)"/>
       </defs>
       <use xlink:href="#TimesNewRomanPSMT-32"/>
       <use xlink:href="#TimesNewRomanPSMT-35" x="50"/>
      </g>
     </g>
    </g>
    <g id="xtick_2">
     <g id="line2d_3">
      <path d="M 120.38246 179.28 
L 120.38246 10.8 
" clip-path="url(#pf34c1ab278)" style="fill: none; stroke-dasharray: 1.85,0.8; stroke-dashoffset: 0; stroke: #b0b0b0; stroke-opacity: 0.7; stroke-width: 0.5"/>
     </g>
     <g id="line2d_4">
      <g>
       <use xlink:href="#me48875a301" x="120.38246" y="179.28" style="stroke: #000000; stroke-width: 0.8"/>
      </g>
     </g>
     <g id="text_2">
      <!-- 50 -->
      <g transform="translate(113.88246 195.306875) scale(0.13 -0.13)">
       <defs>
        <path id="TimesNewRomanPSMT-30" d="M 231 2094 
Q 231 2819 450 3342 
Q 669 3866 1031 4122 
Q 1313 4325 1613 4325 
Q 2100 4325 2488 3828 
Q 2972 3213 2972 2159 
Q 2972 1422 2759 906 
Q 2547 391 2217 158 
Q 1888 -75 1581 -75 
Q 975 -75 572 641 
Q 231 1244 231 2094 
z
M 844 2016 
Q 844 1141 1059 588 
Q 1238 122 1591 122 
Q 1759 122 1940 273 
Q 2122 425 2216 781 
Q 2359 1319 2359 2297 
Q 2359 3022 2209 3506 
Q 2097 3866 1919 4016 
Q 1791 4119 1609 4119 
Q 1397 4119 1231 3928 
Q 1006 3669 925 3112 
Q 844 2556 844 2016 
z
" transform="scale(0.015625)"/>
       </defs>
       <use xlink:href="#TimesNewRomanPSMT-35"/>
       <use xlink:href="#TimesNewRomanPSMT-30" x="50"/>
      </g>
     </g>
    </g>
    <g id="xtick_3">
     <g id="line2d_5">
      <path d="M 161.772834 179.28 
L 161.772834 10.8 
" clip-path="url(#pf34c1ab278)" style="fill: none; stroke-dasharray: 1.85,0.8; stroke-dashoffset: 0; stroke: #b0b0b0; stroke-opacity: 0.7; stroke-width: 0.5"/>
     </g>
     <g id="line2d_6">
      <g>
       <use xlink:href="#me48875a301" x="161.772834" y="179.28" style="stroke: #000000; stroke-width: 0.8"/>
      </g>
     </g>
     <g id="text_3">
      <!-- 75 -->
      <g transform="translate(155.272834 195.306875) scale(0.13 -0.13)">
       <defs>
        <path id="TimesNewRomanPSMT-37" d="M 644 4238 
L 2916 4238 
L 2916 4119 
L 1503 -88 
L 1153 -88 
L 2419 3728 
L 1253 3728 
Q 900 3728 750 3644 
Q 488 3500 328 3200 
L 238 3234 
L 644 4238 
z
" transform="scale(0.015625)"/>
       </defs>
       <use xlink:href="#TimesNewRomanPSMT-37"/>
       <use xlink:href="#TimesNewRomanPSMT-35" x="50"/>
      </g>
     </g>
    </g>
    <g id="text_4">
     <!-- Training Time (h) -->
     <g transform="translate(67.401797 211.114531) scale(0.13 -0.13)">
      <defs>
       <path id="TimesNewRomanPSMT-54" d="M 3703 4238 
L 3750 3244 
L 3631 3244 
Q 3597 3506 3538 3619 
Q 3441 3800 3280 3886 
Q 3119 3972 2856 3972 
L 2259 3972 
L 2259 734 
Q 2259 344 2344 247 
Q 2463 116 2709 116 
L 2856 116 
L 2856 0 
L 1059 0 
L 1059 116 
L 1209 116 
Q 1478 116 1591 278 
Q 1659 378 1659 734 
L 1659 3972 
L 1150 3972 
Q 853 3972 728 3928 
Q 566 3869 450 3700 
Q 334 3531 313 3244 
L 194 3244 
L 244 4238 
L 3703 4238 
z
" transform="scale(0.015625)"/>
       <path id="TimesNewRomanPSMT-72" d="M 1038 2947 
L 1038 2303 
Q 1397 2947 1775 2947 
Q 1947 2947 2059 2842 
Q 2172 2738 2172 2600 
Q 2172 2478 2090 2393 
Q 2009 2309 1897 2309 
Q 1788 2309 1652 2417 
Q 1516 2525 1450 2525 
Q 1394 2525 1328 2463 
Q 1188 2334 1038 2041 
L 1038 669 
Q 1038 431 1097 309 
Q 1138 225 1241 169 
Q 1344 113 1538 113 
L 1538 0 
L 72 0 
L 72 113 
Q 291 113 397 181 
Q 475 231 506 341 
Q 522 394 522 644 
L 522 1753 
Q 522 2253 501 2348 
Q 481 2444 426 2487 
Q 372 2531 291 2531 
Q 194 2531 72 2484 
L 41 2597 
L 906 2947 
L 1038 2947 
z
" transform="scale(0.015625)"/>
       <path id="TimesNewRomanPSMT-61" d="M 1822 413 
Q 1381 72 1269 19 
Q 1100 -59 909 -59 
Q 613 -59 420 144 
Q 228 347 228 678 
Q 228 888 322 1041 
Q 450 1253 767 1440 
Q 1084 1628 1822 1897 
L 1822 2009 
Q 1822 2438 1686 2597 
Q 1550 2756 1291 2756 
Q 1094 2756 978 2650 
Q 859 2544 859 2406 
L 866 2225 
Q 866 2081 792 2003 
Q 719 1925 600 1925 
Q 484 1925 411 2006 
Q 338 2088 338 2228 
Q 338 2497 613 2722 
Q 888 2947 1384 2947 
Q 1766 2947 2009 2819 
Q 2194 2722 2281 2516 
Q 2338 2381 2338 1966 
L 2338 994 
Q 2338 584 2353 492 
Q 2369 400 2405 369 
Q 2441 338 2488 338 
Q 2538 338 2575 359 
Q 2641 400 2828 588 
L 2828 413 
Q 2478 -56 2159 -56 
Q 2006 -56 1915 50 
Q 1825 156 1822 413 
z
M 1822 616 
L 1822 1706 
Q 1350 1519 1213 1441 
Q 966 1303 859 1153 
Q 753 1003 753 825 
Q 753 600 887 451 
Q 1022 303 1197 303 
Q 1434 303 1822 616 
z
" transform="scale(0.015625)"/>
       <path id="TimesNewRomanPSMT-69" d="M 928 4444 
Q 1059 4444 1151 4351 
Q 1244 4259 1244 4128 
Q 1244 3997 1151 3903 
Q 1059 3809 928 3809 
Q 797 3809 703 3903 
Q 609 3997 609 4128 
Q 609 4259 701 4351 
Q 794 4444 928 4444 
z
M 1188 2947 
L 1188 647 
Q 1188 378 1227 289 
Q 1266 200 1342 156 
Q 1419 113 1622 113 
L 1622 0 
L 231 0 
L 231 113 
Q 441 113 512 153 
Q 584 194 626 287 
Q 669 381 669 647 
L 669 1750 
Q 669 2216 641 2353 
Q 619 2453 572 2492 
Q 525 2531 444 2531 
Q 356 2531 231 2484 
L 188 2597 
L 1050 2947 
L 1188 2947 
z
" transform="scale(0.015625)"/>
       <path id="TimesNewRomanPSMT-6e" d="M 1034 2341 
Q 1538 2947 1994 2947 
Q 2228 2947 2397 2830 
Q 2566 2713 2666 2444 
Q 2734 2256 2734 1869 
L 2734 647 
Q 2734 375 2778 278 
Q 2813 200 2889 156 
Q 2966 113 3172 113 
L 3172 0 
L 1756 0 
L 1756 113 
L 1816 113 
Q 2016 113 2095 173 
Q 2175 234 2206 353 
Q 2219 400 2219 647 
L 2219 1819 
Q 2219 2209 2117 2386 
Q 2016 2563 1775 2563 
Q 1403 2563 1034 2156 
L 1034 647 
Q 1034 356 1069 288 
Q 1113 197 1189 155 
Q 1266 113 1500 113 
L 1500 0 
L 84 0 
L 84 113 
L 147 113 
Q 366 113 442 223 
Q 519 334 519 647 
L 519 1709 
Q 519 2225 495 2337 
Q 472 2450 423 2490 
Q 375 2531 294 2531 
Q 206 2531 84 2484 
L 38 2597 
L 900 2947 
L 1034 2947 
L 1034 2341 
z
" transform="scale(0.015625)"/>
       <path id="TimesNewRomanPSMT-67" d="M 966 1044 
Q 703 1172 562 1401 
Q 422 1631 422 1909 
Q 422 2334 742 2640 
Q 1063 2947 1563 2947 
Q 1972 2947 2272 2747 
L 2878 2747 
Q 3013 2747 3034 2739 
Q 3056 2731 3066 2713 
Q 3084 2684 3084 2613 
Q 3084 2531 3069 2500 
Q 3059 2484 3036 2475 
Q 3013 2466 2878 2466 
L 2506 2466 
Q 2681 2241 2681 1891 
Q 2681 1491 2375 1206 
Q 2069 922 1553 922 
Q 1341 922 1119 984 
Q 981 866 932 777 
Q 884 688 884 625 
Q 884 572 936 522 
Q 988 472 1138 450 
Q 1225 438 1575 428 
Q 2219 413 2409 384 
Q 2700 344 2873 169 
Q 3047 -6 3047 -263 
Q 3047 -616 2716 -925 
Q 2228 -1381 1444 -1381 
Q 841 -1381 425 -1109 
Q 191 -953 191 -784 
Q 191 -709 225 -634 
Q 278 -519 444 -313 
Q 466 -284 763 25 
Q 600 122 533 198 
Q 466 275 466 372 
Q 466 481 555 628 
Q 644 775 966 1044 
z
M 1509 2797 
Q 1278 2797 1122 2612 
Q 966 2428 966 2047 
Q 966 1553 1178 1281 
Q 1341 1075 1591 1075 
Q 1828 1075 1981 1253 
Q 2134 1431 2134 1813 
Q 2134 2309 1919 2591 
Q 1759 2797 1509 2797 
z
M 934 0 
Q 788 -159 713 -296 
Q 638 -434 638 -550 
Q 638 -700 819 -813 
Q 1131 -1006 1722 -1006 
Q 2284 -1006 2551 -807 
Q 2819 -609 2819 -384 
Q 2819 -222 2659 -153 
Q 2497 -84 2016 -72 
Q 1313 -53 934 0 
z
" transform="scale(0.015625)"/>
       <path id="TimesNewRomanPSMT-20" transform="scale(0.015625)"/>
       <path id="TimesNewRomanPSMT-6d" d="M 1050 2338 
Q 1363 2650 1419 2697 
Q 1559 2816 1721 2881 
Q 1884 2947 2044 2947 
Q 2313 2947 2506 2790 
Q 2700 2634 2766 2338 
Q 3088 2713 3309 2830 
Q 3531 2947 3766 2947 
Q 3994 2947 4170 2830 
Q 4347 2713 4450 2447 
Q 4519 2266 4519 1878 
L 4519 647 
Q 4519 378 4559 278 
Q 4591 209 4675 161 
Q 4759 113 4950 113 
L 4950 0 
L 3538 0 
L 3538 113 
L 3597 113 
Q 3781 113 3884 184 
Q 3956 234 3988 344 
Q 4000 397 4000 647 
L 4000 1878 
Q 4000 2228 3916 2372 
Q 3794 2572 3525 2572 
Q 3359 2572 3192 2489 
Q 3025 2406 2788 2181 
L 2781 2147 
L 2788 2013 
L 2788 647 
Q 2788 353 2820 281 
Q 2853 209 2943 161 
Q 3034 113 3253 113 
L 3253 0 
L 1806 0 
L 1806 113 
Q 2044 113 2133 169 
Q 2222 225 2256 338 
Q 2272 391 2272 647 
L 2272 1878 
Q 2272 2228 2169 2381 
Q 2031 2581 1784 2581 
Q 1616 2581 1450 2491 
Q 1191 2353 1050 2181 
L 1050 647 
Q 1050 366 1089 281 
Q 1128 197 1204 155 
Q 1281 113 1516 113 
L 1516 0 
L 100 0 
L 100 113 
Q 297 113 375 155 
Q 453 197 493 289 
Q 534 381 534 647 
L 534 1741 
Q 534 2213 506 2350 
Q 484 2453 437 2492 
Q 391 2531 309 2531 
Q 222 2531 100 2484 
L 53 2597 
L 916 2947 
L 1050 2947 
L 1050 2338 
z
" transform="scale(0.015625)"/>
       <path id="TimesNewRomanPSMT-65" d="M 681 1784 
Q 678 1147 991 784 
Q 1303 422 1725 422 
Q 2006 422 2214 576 
Q 2422 731 2563 1106 
L 2659 1044 
Q 2594 616 2278 264 
Q 1963 -88 1488 -88 
Q 972 -88 605 314 
Q 238 716 238 1394 
Q 238 2128 614 2539 
Q 991 2950 1559 2950 
Q 2041 2950 2350 2633 
Q 2659 2316 2659 1784 
L 681 1784 
z
M 681 1966 
L 2006 1966 
Q 1991 2241 1941 2353 
Q 1863 2528 1708 2628 
Q 1553 2728 1384 2728 
Q 1125 2728 920 2526 
Q 716 2325 681 1966 
z
" transform="scale(0.015625)"/>
       <path id="TimesNewRomanPSMT-28" d="M 1988 -1253 
L 1988 -1369 
Q 1516 -1131 1200 -813 
Q 750 -359 506 256 
Q 263 872 263 1534 
Q 263 2503 741 3301 
Q 1219 4100 1988 4444 
L 1988 4313 
Q 1603 4100 1356 3731 
Q 1109 3363 987 2797 
Q 866 2231 866 1616 
Q 866 947 969 400 
Q 1050 -31 1165 -292 
Q 1281 -553 1476 -793 
Q 1672 -1034 1988 -1253 
z
" transform="scale(0.015625)"/>
       <path id="TimesNewRomanPSMT-68" d="M 1041 4444 
L 1041 2350 
Q 1388 2731 1591 2839 
Q 1794 2947 1997 2947 
Q 2241 2947 2416 2812 
Q 2591 2678 2675 2391 
Q 2734 2191 2734 1659 
L 2734 647 
Q 2734 375 2778 275 
Q 2809 200 2884 156 
Q 2959 113 3159 113 
L 3159 0 
L 1753 0 
L 1753 113 
L 1819 113 
Q 2019 113 2097 173 
Q 2175 234 2206 353 
Q 2216 403 2216 647 
L 2216 1659 
Q 2216 2128 2167 2275 
Q 2119 2422 2012 2495 
Q 1906 2569 1756 2569 
Q 1603 2569 1437 2487 
Q 1272 2406 1041 2159 
L 1041 647 
Q 1041 353 1073 281 
Q 1106 209 1195 161 
Q 1284 113 1503 113 
L 1503 0 
L 84 0 
L 84 113 
Q 275 113 384 172 
Q 447 203 484 290 
Q 522 378 522 647 
L 522 3238 
Q 522 3728 498 3840 
Q 475 3953 426 3993 
Q 378 4034 297 4034 
Q 231 4034 84 3984 
L 41 4094 
L 897 4444 
L 1041 4444 
z
" transform="scale(0.015625)"/>
       <path id="TimesNewRomanPSMT-29" d="M 144 4313 
L 144 4444 
Q 619 4209 934 3891 
Q 1381 3434 1625 2820 
Q 1869 2206 1869 1541 
Q 1869 572 1392 -226 
Q 916 -1025 144 -1369 
L 144 -1253 
Q 528 -1038 776 -670 
Q 1025 -303 1145 264 
Q 1266 831 1266 1447 
Q 1266 2113 1163 2663 
Q 1084 3094 967 3353 
Q 850 3613 656 3853 
Q 463 4094 144 4313 
z
" transform="scale(0.015625)"/>
      </defs>
      <use xlink:href="#TimesNewRomanPSMT-54"/>
      <use xlink:href="#TimesNewRomanPSMT-72" x="57.583984"/>
      <use xlink:href="#TimesNewRomanPSMT-61" x="90.884766"/>
      <use xlink:href="#TimesNewRomanPSMT-69" x="135.269531"/>
      <use xlink:href="#TimesNewRomanPSMT-6e" x="163.052734"/>
      <use xlink:href="#TimesNewRomanPSMT-69" x="213.052734"/>
      <use xlink:href="#TimesNewRomanPSMT-6e" x="240.835938"/>
      <use xlink:href="#TimesNewRomanPSMT-67" x="290.835938"/>
      <use xlink:href="#TimesNewRomanPSMT-20" x="340.835938"/>
      <use xlink:href="#TimesNewRomanPSMT-54" x="364.085938"/>
      <use xlink:href="#TimesNewRomanPSMT-69" x="421.669922"/>
      <use xlink:href="#TimesNewRomanPSMT-6d" x="449.453125"/>
      <use xlink:href="#TimesNewRomanPSMT-65" x="527.236328"/>
      <use xlink:href="#TimesNewRomanPSMT-20" x="571.621094"/>
      <use xlink:href="#TimesNewRomanPSMT-28" x="596.621094"/>
      <use xlink:href="#TimesNewRomanPSMT-68" x="629.921875"/>
      <use xlink:href="#TimesNewRomanPSMT-29" x="679.921875"/>
     </g>
    </g>
   </g>
   <g id="matplotlib.axis_2">
    <g id="ytick_1">
     <g id="line2d_7">
      <path d="M 51.84 163.630672 
L 175.68 163.630672 
" clip-path="url(#pf34c1ab278)" style="fill: none; stroke-dasharray: 1.85,0.8; stroke-dashoffset: 0; stroke: #b0b0b0; stroke-opacity: 0.7; stroke-width: 0.5"/>
     </g>
     <g id="line2d_8">
      <defs>
       <path id="m40106cce0d" d="M 0 0 
L -3.5 0 
" style="stroke: #000000; stroke-width: 0.8"/>
      </defs>
      <g>
       <use xlink:href="#m40106cce0d" x="51.84" y="163.630672" style="stroke: #000000; stroke-width: 0.8"/>
      </g>
     </g>
     <g id="text_5">
      <!-- 25.0 -->
      <g transform="translate(22.09 168.144109) scale(0.13 -0.13)">
       <defs>
        <path id="TimesNewRomanPSMT-2e" d="M 800 606 
Q 947 606 1047 504 
Q 1147 403 1147 259 
Q 1147 116 1045 14 
Q 944 -88 800 -88 
Q 656 -88 554 14 
Q 453 116 453 259 
Q 453 406 554 506 
Q 656 606 800 606 
z
" transform="scale(0.015625)"/>
       </defs>
       <use xlink:href="#TimesNewRomanPSMT-32"/>
       <use xlink:href="#TimesNewRomanPSMT-35" x="50"/>
       <use xlink:href="#TimesNewRomanPSMT-2e" x="100"/>
       <use xlink:href="#TimesNewRomanPSMT-30" x="125"/>
      </g>
     </g>
    </g>
    <g id="ytick_2">
     <g id="line2d_9">
      <path d="M 51.84 130.334229 
L 175.68 130.334229 
" clip-path="url(#pf34c1ab278)" style="fill: none; stroke-dasharray: 1.85,0.8; stroke-dashoffset: 0; stroke: #b0b0b0; stroke-opacity: 0.7; stroke-width: 0.5"/>
     </g>
     <g id="line2d_10">
      <g>
       <use xlink:href="#m40106cce0d" x="51.84" y="130.334229" style="stroke: #000000; stroke-width: 0.8"/>
      </g>
     </g>
     <g id="text_6">
      <!-- 27.5 -->
      <g transform="translate(22.09 134.847667) scale(0.13 -0.13)">
       <use xlink:href="#TimesNewRomanPSMT-32"/>
       <use xlink:href="#TimesNewRomanPSMT-37" x="50"/>
       <use xlink:href="#TimesNewRomanPSMT-2e" x="100"/>
       <use xlink:href="#TimesNewRomanPSMT-35" x="125"/>
      </g>
     </g>
    </g>
    <g id="ytick_3">
     <g id="line2d_11">
      <path d="M 51.84 97.037787 
L 175.68 97.037787 
" clip-path="url(#pf34c1ab278)" style="fill: none; stroke-dasharray: 1.85,0.8; stroke-dashoffset: 0; stroke: #b0b0b0; stroke-opacity: 0.7; stroke-width: 0.5"/>
     </g>
     <g id="line2d_12">
      <g>
       <use xlink:href="#m40106cce0d" x="51.84" y="97.037787" style="stroke: #000000; stroke-width: 0.8"/>
      </g>
     </g>
     <g id="text_7">
      <!-- 30.0 -->
      <g transform="translate(22.09 101.551224) scale(0.13 -0.13)">
       <defs>
        <path id="TimesNewRomanPSMT-33" d="M 325 3431 
Q 506 3859 782 4092 
Q 1059 4325 1472 4325 
Q 1981 4325 2253 3994 
Q 2459 3747 2459 3466 
Q 2459 3003 1878 2509 
Q 2269 2356 2469 2072 
Q 2669 1788 2669 1403 
Q 2669 853 2319 450 
Q 1863 -75 997 -75 
Q 569 -75 414 31 
Q 259 138 259 259 
Q 259 350 332 419 
Q 406 488 509 488 
Q 588 488 669 463 
Q 722 447 909 348 
Q 1097 250 1169 231 
Q 1284 197 1416 197 
Q 1734 197 1970 444 
Q 2206 691 2206 1028 
Q 2206 1275 2097 1509 
Q 2016 1684 1919 1775 
Q 1784 1900 1550 2001 
Q 1316 2103 1072 2103 
L 972 2103 
L 972 2197 
Q 1219 2228 1467 2375 
Q 1716 2522 1828 2728 
Q 1941 2934 1941 3181 
Q 1941 3503 1739 3701 
Q 1538 3900 1238 3900 
Q 753 3900 428 3381 
L 325 3431 
z
" transform="scale(0.015625)"/>
       </defs>
       <use xlink:href="#TimesNewRomanPSMT-33"/>
       <use xlink:href="#TimesNewRomanPSMT-30" x="50"/>
       <use xlink:href="#TimesNewRomanPSMT-2e" x="100"/>
       <use xlink:href="#TimesNewRomanPSMT-30" x="125"/>
      </g>
     </g>
    </g>
    <g id="ytick_4">
     <g id="line2d_13">
      <path d="M 51.84 63.741344 
L 175.68 63.741344 
" clip-path="url(#pf34c1ab278)" style="fill: none; stroke-dasharray: 1.85,0.8; stroke-dashoffset: 0; stroke: #b0b0b0; stroke-opacity: 0.7; stroke-width: 0.5"/>
     </g>
     <g id="line2d_14">
      <g>
       <use xlink:href="#m40106cce0d" x="51.84" y="63.741344" style="stroke: #000000; stroke-width: 0.8"/>
      </g>
     </g>
     <g id="text_8">
      <!-- 32.5 -->
      <g transform="translate(22.09 68.254781) scale(0.13 -0.13)">
       <use xlink:href="#TimesNewRomanPSMT-33"/>
       <use xlink:href="#TimesNewRomanPSMT-32" x="50"/>
       <use xlink:href="#TimesNewRomanPSMT-2e" x="100"/>
       <use xlink:href="#TimesNewRomanPSMT-35" x="125"/>
      </g>
     </g>
    </g>
    <g id="ytick_5">
     <g id="line2d_15">
      <path d="M 51.84 30.444901 
L 175.68 30.444901 
" clip-path="url(#pf34c1ab278)" style="fill: none; stroke-dasharray: 1.85,0.8; stroke-dashoffset: 0; stroke: #b0b0b0; stroke-opacity: 0.7; stroke-width: 0.5"/>
     </g>
     <g id="line2d_16">
      <g>
       <use xlink:href="#m40106cce0d" x="51.84" y="30.444901" style="stroke: #000000; stroke-width: 0.8"/>
      </g>
     </g>
     <g id="text_9">
      <!-- 35.0 -->
      <g transform="translate(22.09 34.958339) scale(0.13 -0.13)">
       <use xlink:href="#TimesNewRomanPSMT-33"/>
       <use xlink:href="#TimesNewRomanPSMT-35" x="50"/>
       <use xlink:href="#TimesNewRomanPSMT-2e" x="100"/>
       <use xlink:href="#TimesNewRomanPSMT-30" x="125"/>
      </g>
     </g>
    </g>
    <g id="text_10">
     <!-- LVIS AP -->
     <g transform="translate(15.309219 118.466406) rotate(-90) scale(0.13 -0.13)">
      <defs>
       <path id="TimesNewRomanPSMT-4c" d="M 3669 1172 
L 3772 1150 
L 3409 0 
L 128 0 
L 128 116 
L 288 116 
Q 556 116 672 291 
Q 738 391 738 753 
L 738 3488 
Q 738 3884 650 3984 
Q 528 4122 288 4122 
L 128 4122 
L 128 4238 
L 2047 4238 
L 2047 4122 
Q 1709 4125 1573 4059 
Q 1438 3994 1388 3894 
Q 1338 3794 1338 3416 
L 1338 753 
Q 1338 494 1388 397 
Q 1425 331 1503 300 
Q 1581 269 1991 269 
L 2300 269 
Q 2788 269 2984 341 
Q 3181 413 3343 595 
Q 3506 778 3669 1172 
z
" transform="scale(0.015625)"/>
       <path id="TimesNewRomanPSMT-56" d="M 4544 4238 
L 4544 4122 
Q 4319 4081 4203 3978 
Q 4038 3825 3909 3509 
L 2431 -97 
L 2316 -97 
L 728 3556 
Q 606 3838 556 3900 
Q 478 3997 364 4051 
Q 250 4106 56 4122 
L 56 4238 
L 1788 4238 
L 1788 4122 
Q 1494 4094 1406 4022 
Q 1319 3950 1319 3838 
Q 1319 3681 1463 3350 
L 2541 866 
L 3541 3319 
Q 3688 3681 3688 3822 
Q 3688 3913 3597 3995 
Q 3506 4078 3291 4113 
Q 3275 4116 3238 4122 
L 3238 4238 
L 4544 4238 
z
" transform="scale(0.015625)"/>
       <path id="TimesNewRomanPSMT-49" d="M 1975 116 
L 1975 0 
L 159 0 
L 159 116 
L 309 116 
Q 572 116 691 269 
Q 766 369 766 750 
L 766 3488 
Q 766 3809 725 3913 
Q 694 3991 597 4047 
Q 459 4122 309 4122 
L 159 4122 
L 159 4238 
L 1975 4238 
L 1975 4122 
L 1822 4122 
Q 1563 4122 1444 3969 
Q 1366 3869 1366 3488 
L 1366 750 
Q 1366 428 1406 325 
Q 1438 247 1538 191 
Q 1672 116 1822 116 
L 1975 116 
z
" transform="scale(0.015625)"/>
       <path id="TimesNewRomanPSMT-53" d="M 2934 4334 
L 2934 2869 
L 2819 2869 
Q 2763 3291 2617 3541 
Q 2472 3791 2203 3937 
Q 1934 4084 1647 4084 
Q 1322 4084 1109 3886 
Q 897 3688 897 3434 
Q 897 3241 1031 3081 
Q 1225 2847 1953 2456 
Q 2547 2138 2764 1967 
Q 2981 1797 3098 1565 
Q 3216 1334 3216 1081 
Q 3216 600 2842 251 
Q 2469 -97 1881 -97 
Q 1697 -97 1534 -69 
Q 1438 -53 1133 45 
Q 828 144 747 144 
Q 669 144 623 97 
Q 578 50 556 -97 
L 441 -97 
L 441 1356 
L 556 1356 
Q 638 900 775 673 
Q 913 447 1195 297 
Q 1478 147 1816 147 
Q 2206 147 2432 353 
Q 2659 559 2659 841 
Q 2659 997 2573 1156 
Q 2488 1316 2306 1453 
Q 2184 1547 1640 1851 
Q 1097 2156 867 2337 
Q 638 2519 519 2737 
Q 400 2956 400 3219 
Q 400 3675 750 4004 
Q 1100 4334 1641 4334 
Q 1978 4334 2356 4169 
Q 2531 4091 2603 4091 
Q 2684 4091 2736 4139 
Q 2788 4188 2819 4334 
L 2934 4334 
z
" transform="scale(0.015625)"/>
       <path id="TimesNewRomanPSMT-41" d="M 2928 1419 
L 1288 1419 
L 1000 750 
Q 894 503 894 381 
Q 894 284 986 211 
Q 1078 138 1384 116 
L 1384 0 
L 50 0 
L 50 116 
Q 316 163 394 238 
Q 553 388 747 847 
L 2238 4334 
L 2347 4334 
L 3822 809 
Q 4000 384 4145 257 
Q 4291 131 4550 116 
L 4550 0 
L 2878 0 
L 2878 116 
Q 3131 128 3220 200 
Q 3309 272 3309 375 
Q 3309 513 3184 809 
L 2928 1419 
z
M 2841 1650 
L 2122 3363 
L 1384 1650 
L 2841 1650 
z
" transform="scale(0.015625)"/>
       <path id="TimesNewRomanPSMT-50" d="M 1313 1984 
L 1313 750 
Q 1313 350 1400 253 
Q 1519 116 1759 116 
L 1922 116 
L 1922 0 
L 106 0 
L 106 116 
L 266 116 
Q 534 116 650 291 
Q 713 388 713 750 
L 713 3488 
Q 713 3888 628 3984 
Q 506 4122 266 4122 
L 106 4122 
L 106 4238 
L 1659 4238 
Q 2228 4238 2556 4120 
Q 2884 4003 3109 3725 
Q 3334 3447 3334 3066 
Q 3334 2547 2992 2222 
Q 2650 1897 2025 1897 
Q 1872 1897 1694 1919 
Q 1516 1941 1313 1984 
z
M 1313 2163 
Q 1478 2131 1606 2115 
Q 1734 2100 1825 2100 
Q 2150 2100 2386 2351 
Q 2622 2603 2622 3003 
Q 2622 3278 2509 3514 
Q 2397 3750 2190 3867 
Q 1984 3984 1722 3984 
Q 1563 3984 1313 3925 
L 1313 2163 
z
" transform="scale(0.015625)"/>
      </defs>
      <use xlink:href="#TimesNewRomanPSMT-4c"/>
      <use xlink:href="#TimesNewRomanPSMT-56" x="51.958984"/>
      <use xlink:href="#TimesNewRomanPSMT-49" x="124.175781"/>
      <use xlink:href="#TimesNewRomanPSMT-53" x="157.476562"/>
      <use xlink:href="#TimesNewRomanPSMT-20" x="213.091797"/>
      <use xlink:href="#TimesNewRomanPSMT-41" x="232.591797"/>
      <use xlink:href="#TimesNewRomanPSMT-50" x="304.808594"/>
     </g>
    </g>
   </g>
   <g id="line2d_17">
    <path d="M 107.13754 171.621818 
L 136.93861 65.073202 
L 170.050909 23.785613 
" clip-path="url(#pf34c1ab278)" style="fill: none; stroke-dasharray: 5.55,2.4; stroke-dashoffset: 0; stroke: #1f77b4; stroke-opacity: 0.5; stroke-width: 1.5"/>
   </g>
   <g id="line2d_18">
    <path d="M 57.469091 125.006798 
L 65.747166 62.409486 
L 74.853048 18.458182 
" clip-path="url(#pf34c1ab278)" style="fill: none; stroke-dasharray: 5.55,2.4; stroke-dashoffset: 0; stroke: #ff7f0e; stroke-opacity: 0.5; stroke-width: 1.5"/>
   </g>
   <g id="patch_3">
    <path d="M 51.84 179.28 
L 51.84 10.8 
" style="fill: none; stroke: #000000; stroke-width: 1.5; stroke-linejoin: miter; stroke-linecap: square"/>
   </g>
   <g id="patch_4">
    <path d="M 175.68 179.28 
L 175.68 10.8 
" style="fill: none; stroke: #000000; stroke-width: 1.5; stroke-linejoin: miter; stroke-linecap: square"/>
   </g>
   <g id="patch_5">
    <path d="M 51.84 179.28 
L 175.68 179.28 
" style="fill: none; stroke: #000000; stroke-width: 1.5; stroke-linejoin: miter; stroke-linecap: square"/>
   </g>
   <g id="patch_6">
    <path d="M 51.84 10.8 
L 175.68 10.8 
" style="fill: none; stroke: #000000; stroke-width: 1.5; stroke-linejoin: miter; stroke-linecap: square"/>
   </g>
   <g id="patch_7">
    <path d="M 166.400553 23.670994 
Q 122.038765 21.121937 79.351266 18.669086 
" style="fill: none; stroke-dasharray: 5.55,2.4; stroke-dashoffset: 0; stroke: #ff0000; stroke-width: 1.5; stroke-linecap: round"/>
    <path d="M 84.393551 21.563108 
L 79.351266 18.669086 
L 84.691854 16.371671 
" style="fill: none; stroke-dasharray: 5.55,2.4; stroke-dashoffset: 0; stroke: #ff0000; stroke-width: 1.5; stroke-linecap: round"/>
   </g>
   <g id="text_11">
    <!-- 3$\times$ Less Time -->
    <g style="fill: #ff0000" transform="translate(82.392898 34.613929) rotate(-358) scale(0.12 -0.12)">
     <defs>
      <path id="TimesNewRomanPS-BoldMT-33" d="M 947 2125 
L 947 2234 
Q 1303 2338 1440 2427 
Q 1578 2516 1678 2698 
Q 1778 2881 1778 3069 
Q 1778 3328 1589 3514 
Q 1400 3700 1119 3700 
Q 681 3700 375 3238 
L 259 3278 
Q 484 3800 836 4062 
Q 1188 4325 1619 4325 
Q 2059 4325 2345 4056 
Q 2631 3788 2631 3428 
Q 2631 3194 2498 2976 
Q 2366 2759 2081 2594 
Q 2447 2416 2639 2155 
Q 2831 1894 2831 1500 
Q 2831 838 2351 373 
Q 1872 -91 1066 -91 
Q 528 -91 281 88 
Q 103 213 103 409 
Q 103 553 206 654 
Q 309 756 444 756 
Q 547 756 638 713 
Q 688 688 992 439 
Q 1297 191 1563 191 
Q 1794 191 1959 373 
Q 2125 556 2125 838 
Q 2125 1266 1825 1627 
Q 1525 1988 947 2125 
z
" transform="scale(0.015625)"/>
      <path id="DejaVuSans-d7" d="M 4488 3438 
L 3059 2003 
L 4488 575 
L 4116 197 
L 2681 1631 
L 1247 197 
L 878 575 
L 2303 2003 
L 878 3438 
L 1247 3816 
L 2681 2381 
L 4116 3816 
L 4488 3438 
z
" transform="scale(0.015625)"/>
      <path id="TimesNewRomanPS-BoldMT-20" transform="scale(0.015625)"/>
      <path id="TimesNewRomanPS-BoldMT-4c" d="M 4041 1488 
L 3881 0 
L 119 0 
L 119 116 
L 259 116 
Q 444 116 556 181 
Q 638 225 681 331 
Q 716 406 716 725 
L 716 3513 
Q 716 3838 681 3919 
Q 647 4000 542 4061 
Q 438 4122 259 4122 
L 119 4122 
L 119 4238 
L 2378 4238 
L 2378 4122 
L 2194 4122 
Q 2009 4122 1897 4056 
Q 1816 4013 1769 3906 
Q 1734 3831 1734 3513 
L 1734 813 
Q 1734 488 1771 398 
Q 1809 309 1919 266 
Q 1997 238 2297 238 
L 2650 238 
Q 2988 238 3213 356 
Q 3438 475 3602 731 
Q 3766 988 3913 1488 
L 4041 1488 
z
" transform="scale(0.015625)"/>
      <path id="TimesNewRomanPS-BoldMT-65" d="M 2691 1566 
L 1088 1566 
Q 1116 984 1397 647 
Q 1613 388 1916 388 
Q 2103 388 2256 492 
Q 2409 597 2584 869 
L 2691 800 
Q 2453 316 2165 114 
Q 1878 -88 1500 -88 
Q 850 -88 516 413 
Q 247 816 247 1413 
Q 247 2144 642 2576 
Q 1038 3009 1569 3009 
Q 2013 3009 2339 2645 
Q 2666 2281 2691 1566 
z
M 1922 1775 
Q 1922 2278 1867 2465 
Q 1813 2653 1697 2750 
Q 1631 2806 1522 2806 
Q 1359 2806 1256 2647 
Q 1072 2369 1072 1884 
L 1072 1775 
L 1922 1775 
z
" transform="scale(0.015625)"/>
      <path id="TimesNewRomanPS-BoldMT-73" d="M 2063 3003 
L 2109 2006 
L 2003 2006 
Q 1813 2450 1608 2612 
Q 1403 2775 1200 2775 
Q 1072 2775 981 2689 
Q 891 2603 891 2491 
Q 891 2406 953 2328 
Q 1053 2200 1512 1889 
Q 1972 1578 2117 1361 
Q 2263 1144 2263 875 
Q 2263 631 2141 397 
Q 2019 163 1797 37 
Q 1575 -88 1306 -88 
Q 1097 -88 747 44 
Q 653 78 619 78 
Q 516 78 447 -78 
L 344 -78 
L 294 972 
L 400 972 
Q 541 559 786 353 
Q 1031 147 1250 147 
Q 1400 147 1495 239 
Q 1591 331 1591 463 
Q 1591 613 1497 722 
Q 1403 831 1078 1053 
Q 600 1384 459 1559 
Q 253 1816 253 2125 
Q 253 2463 486 2736 
Q 719 3009 1159 3009 
Q 1397 3009 1619 2894 
Q 1703 2847 1756 2847 
Q 1813 2847 1847 2870 
Q 1881 2894 1956 3003 
L 2063 3003 
z
" transform="scale(0.015625)"/>
      <path id="TimesNewRomanPS-BoldMT-54" d="M 4038 4238 
L 4038 3091 
L 3925 3091 
Q 3825 3488 3703 3661 
Q 3581 3834 3369 3938 
Q 3250 3994 2953 3994 
L 2638 3994 
L 2638 725 
Q 2638 400 2673 319 
Q 2709 238 2814 177 
Q 2919 116 3100 116 
L 3241 116 
L 3241 0 
L 1022 0 
L 1022 116 
L 1163 116 
Q 1347 116 1459 181 
Q 1541 225 1588 331 
Q 1622 406 1622 725 
L 1622 3994 
L 1316 3994 
Q 888 3994 694 3813 
Q 422 3559 350 3091 
L 231 3091 
L 231 4238 
L 4038 4238 
z
" transform="scale(0.015625)"/>
      <path id="TimesNewRomanPS-BoldMT-69" d="M 919 4338 
Q 1122 4338 1262 4195 
Q 1403 4053 1403 3853 
Q 1403 3653 1261 3512 
Q 1119 3372 919 3372 
Q 719 3372 578 3512 
Q 438 3653 438 3853 
Q 438 4053 578 4195 
Q 719 4338 919 4338 
z
M 1356 2922 
L 1356 606 
Q 1356 297 1428 211 
Q 1500 125 1709 113 
L 1709 0 
L 131 0 
L 131 113 
Q 325 119 419 225 
Q 481 297 481 606 
L 481 2313 
Q 481 2622 409 2708 
Q 338 2794 131 2806 
L 131 2922 
L 1356 2922 
z
" transform="scale(0.015625)"/>
      <path id="TimesNewRomanPS-BoldMT-6d" d="M 1428 2922 
L 1428 2538 
Q 1669 2800 1873 2904 
Q 2078 3009 2322 3009 
Q 2603 3009 2793 2878 
Q 2984 2747 3088 2478 
Q 3338 2759 3567 2884 
Q 3797 3009 4047 3009 
Q 4350 3009 4529 2870 
Q 4709 2731 4779 2517 
Q 4850 2303 4850 1834 
L 4850 638 
Q 4850 300 4911 219 
Q 4972 138 5166 113 
L 5166 0 
L 3656 0 
L 3656 113 
Q 3834 128 3919 250 
Q 3975 334 3975 638 
L 3975 1894 
Q 3975 2284 3944 2390 
Q 3913 2497 3845 2548 
Q 3778 2600 3688 2600 
Q 3553 2600 3415 2501 
Q 3278 2403 3138 2206 
L 3138 638 
Q 3138 322 3191 241 
Q 3263 125 3466 113 
L 3466 0 
L 1953 0 
L 1953 113 
Q 2075 119 2145 173 
Q 2216 228 2239 304 
Q 2263 381 2263 638 
L 2263 1894 
Q 2263 2291 2231 2391 
Q 2200 2491 2126 2547 
Q 2053 2603 1969 2603 
Q 1844 2603 1741 2538 
Q 1594 2441 1428 2206 
L 1428 638 
Q 1428 328 1489 229 
Q 1550 131 1744 113 
L 1744 0 
L 238 0 
L 238 113 
Q 422 131 500 231 
Q 553 300 553 638 
L 553 2288 
Q 553 2619 492 2700 
Q 431 2781 238 2806 
L 238 2922 
L 1428 2922 
z
" transform="scale(0.015625)"/>
     </defs>
     <use xlink:href="#TimesNewRomanPS-BoldMT-33" transform="translate(0 0.21875)"/>
     <use xlink:href="#DejaVuSans-d7" transform="translate(50 0.21875)"/>
     <use xlink:href="#TimesNewRomanPS-BoldMT-20" transform="translate(133.789062 0.21875)"/>
     <use xlink:href="#TimesNewRomanPS-BoldMT-4c" transform="translate(158.789062 0.21875)"/>
     <use xlink:href="#TimesNewRomanPS-BoldMT-65" transform="translate(225.488281 0.21875)"/>
     <use xlink:href="#TimesNewRomanPS-BoldMT-73" transform="translate(269.873047 0.21875)"/>
     <use xlink:href="#TimesNewRomanPS-BoldMT-73" transform="translate(308.789062 0.21875)"/>
     <use xlink:href="#TimesNewRomanPS-BoldMT-20" transform="translate(347.705078 0.21875)"/>
     <use xlink:href="#TimesNewRomanPS-BoldMT-54" transform="translate(372.705078 0.21875)"/>
     <use xlink:href="#TimesNewRomanPS-BoldMT-69" transform="translate(439.404297 0.21875)"/>
     <use xlink:href="#TimesNewRomanPS-BoldMT-6d" transform="translate(467.1875 0.21875)"/>
     <use xlink:href="#TimesNewRomanPS-BoldMT-65" transform="translate(550.488281 0.21875)"/>
    </g>
   </g>
   <g id="legend_1">
    <g id="patch_8">
     <path d="M 80.145 173.78 
L 167.98 173.78 
Q 170.18 173.78 170.18 171.58 
L 170.18 141.574063 
Q 170.18 139.374063 167.98 139.374063 
L 80.145 139.374063 
Q 77.945 139.374063 77.945 141.574063 
L 77.945 171.58 
Q 77.945 173.78 80.145 173.78 
z
" style="fill: #ffffff; opacity: 0.8; stroke: #cccccc; stroke-linejoin: miter"/>
    </g>
    <g id="PathCollection_3">
     <defs>
      <path id="m4854515810" d="M 0 2.738613 
C 0.726289 2.738613 1.422928 2.450055 1.936492 1.936492 
C 2.450055 1.422928 2.738613 0.726289 2.738613 0 
C 2.738613 -0.726289 2.450055 -1.422928 1.936492 -1.936492 
C 1.422928 -2.450055 0.726289 -2.738613 0 -2.738613 
C -0.726289 -2.738613 -1.422928 -2.450055 -1.936492 -1.936492 
C -2.450055 -1.422928 -2.738613 -0.726289 -2.738613 0 
C -2.738613 0.726289 -2.450055 1.422928 -1.936492 1.936492 
C -1.422928 2.450055 -0.726289 2.738613 0 2.738613 
z
" style="stroke: #000000; stroke-width: 0.5"/>
     </defs>
     <g>
      <use xlink:href="#m4854515810" x="85.095" y="148.586563" style="fill: #1f77b4; stroke: #000000; stroke-width: 0.5"/>
     </g>
    </g>
    <g id="text_12">
     <!-- YOLO-Worldv2 -->
     <g transform="translate(93.345 151.474063) scale(0.11 -0.11)">
      <defs>
       <path id="TimesNewRomanPSMT-59" d="M 3050 4238 
L 4528 4238 
L 4528 4122 
L 4447 4122 
Q 4366 4122 4209 4050 
Q 4053 3978 3925 3843 
Q 3797 3709 3609 3406 
L 2588 1797 
L 2588 734 
Q 2588 344 2675 247 
Q 2794 116 3050 116 
L 3188 116 
L 3188 0 
L 1388 0 
L 1388 116 
L 1538 116 
Q 1806 116 1919 278 
Q 1988 378 1988 734 
L 1988 1738 
L 825 3513 
Q 619 3825 545 3903 
Q 472 3981 241 4091 
Q 178 4122 59 4122 
L 59 4238 
L 1872 4238 
L 1872 4122 
L 1778 4122 
Q 1631 4122 1507 4053 
Q 1384 3984 1384 3847 
Q 1384 3734 1575 3441 
L 2459 2075 
L 3291 3381 
Q 3478 3675 3478 3819 
Q 3478 3906 3433 3975 
Q 3388 4044 3303 4083 
Q 3219 4122 3050 4122 
L 3050 4238 
z
" transform="scale(0.015625)"/>
       <path id="TimesNewRomanPSMT-4f" d="M 2341 4334 
Q 3166 4334 3770 3707 
Q 4375 3081 4375 2144 
Q 4375 1178 3765 540 
Q 3156 -97 2291 -97 
Q 1416 -97 820 525 
Q 225 1147 225 2134 
Q 225 3144 913 3781 
Q 1509 4334 2341 4334 
z
M 2281 4106 
Q 1713 4106 1369 3684 
Q 941 3159 941 2147 
Q 941 1109 1384 550 
Q 1725 125 2284 125 
Q 2881 125 3270 590 
Q 3659 1056 3659 2059 
Q 3659 3147 3231 3681 
Q 2888 4106 2281 4106 
z
" transform="scale(0.015625)"/>
       <path id="TimesNewRomanPSMT-2d" d="M 259 1672 
L 1875 1672 
L 1875 1200 
L 259 1200 
L 259 1672 
z
" transform="scale(0.015625)"/>
       <path id="TimesNewRomanPSMT-57" d="M 5991 4238 
L 5991 4122 
Q 5825 4122 5722 4062 
Q 5619 4003 5525 3841 
Q 5463 3731 5328 3319 
L 4147 -97 
L 4022 -97 
L 3056 2613 
L 2097 -97 
L 1984 -97 
L 725 3422 
Q 584 3816 547 3888 
Q 484 4006 376 4064 
Q 269 4122 84 4122 
L 84 4238 
L 1653 4238 
L 1653 4122 
L 1578 4122 
Q 1413 4122 1325 4047 
Q 1238 3972 1238 3866 
Q 1238 3756 1375 3363 
L 2209 984 
L 2913 3006 
L 2788 3363 
L 2688 3647 
Q 2622 3803 2541 3922 
Q 2500 3981 2441 4022 
Q 2363 4078 2284 4103 
Q 2225 4122 2097 4122 
L 2097 4238 
L 3747 4238 
L 3747 4122 
L 3634 4122 
Q 3459 4122 3378 4047 
Q 3297 3972 3297 3844 
Q 3297 3684 3438 3288 
L 4250 984 
L 5056 3319 
Q 5194 3706 5194 3856 
Q 5194 3928 5148 3990 
Q 5103 4053 5034 4078 
Q 4916 4122 4725 4122 
L 4725 4238 
L 5991 4238 
z
" transform="scale(0.015625)"/>
       <path id="TimesNewRomanPSMT-6f" d="M 1600 2947 
Q 2250 2947 2644 2453 
Q 2978 2031 2978 1484 
Q 2978 1100 2793 706 
Q 2609 313 2286 112 
Q 1963 -88 1566 -88 
Q 919 -88 538 428 
Q 216 863 216 1403 
Q 216 1797 411 2186 
Q 606 2575 925 2761 
Q 1244 2947 1600 2947 
z
M 1503 2744 
Q 1338 2744 1170 2645 
Q 1003 2547 900 2300 
Q 797 2053 797 1666 
Q 797 1041 1045 587 
Q 1294 134 1700 134 
Q 2003 134 2200 384 
Q 2397 634 2397 1244 
Q 2397 2006 2069 2444 
Q 1847 2744 1503 2744 
z
" transform="scale(0.015625)"/>
       <path id="TimesNewRomanPSMT-6c" d="M 1184 4444 
L 1184 647 
Q 1184 378 1223 290 
Q 1263 203 1344 158 
Q 1425 113 1647 113 
L 1647 0 
L 244 0 
L 244 113 
Q 441 113 512 153 
Q 584 194 625 287 
Q 666 381 666 647 
L 666 3247 
Q 666 3731 644 3842 
Q 622 3953 573 3993 
Q 525 4034 450 4034 
Q 369 4034 244 3984 
L 191 4094 
L 1044 4444 
L 1184 4444 
z
" transform="scale(0.015625)"/>
       <path id="TimesNewRomanPSMT-64" d="M 2222 322 
Q 2013 103 1813 7 
Q 1613 -88 1381 -88 
Q 913 -88 563 304 
Q 213 697 213 1313 
Q 213 1928 600 2439 
Q 988 2950 1597 2950 
Q 1975 2950 2222 2709 
L 2222 3238 
Q 2222 3728 2198 3840 
Q 2175 3953 2125 3993 
Q 2075 4034 2000 4034 
Q 1919 4034 1784 3984 
L 1744 4094 
L 2597 4444 
L 2738 4444 
L 2738 1134 
Q 2738 631 2761 520 
Q 2784 409 2836 365 
Q 2888 322 2956 322 
Q 3041 322 3181 375 
L 3216 266 
L 2366 -88 
L 2222 -88 
L 2222 322 
z
M 2222 541 
L 2222 2016 
Q 2203 2228 2109 2403 
Q 2016 2578 1861 2667 
Q 1706 2756 1559 2756 
Q 1284 2756 1069 2509 
Q 784 2184 784 1559 
Q 784 928 1059 592 
Q 1334 256 1672 256 
Q 1956 256 2222 541 
z
" transform="scale(0.015625)"/>
       <path id="TimesNewRomanPSMT-76" d="M 53 2863 
L 1400 2863 
L 1400 2747 
L 1313 2747 
Q 1191 2747 1127 2687 
Q 1063 2628 1063 2528 
Q 1063 2419 1128 2269 
L 1794 688 
L 2463 2328 
Q 2534 2503 2534 2594 
Q 2534 2638 2509 2666 
Q 2475 2713 2422 2730 
Q 2369 2747 2206 2747 
L 2206 2863 
L 3141 2863 
L 3141 2747 
Q 2978 2734 2916 2681 
Q 2806 2588 2719 2369 
L 1703 -88 
L 1575 -88 
L 553 2328 
Q 484 2497 421 2570 
Q 359 2644 263 2694 
Q 209 2722 53 2747 
L 53 2863 
z
" transform="scale(0.015625)"/>
      </defs>
      <use xlink:href="#TimesNewRomanPSMT-59"/>
      <use xlink:href="#TimesNewRomanPSMT-4f" x="72.216797"/>
      <use xlink:href="#TimesNewRomanPSMT-4c" x="144.433594"/>
      <use xlink:href="#TimesNewRomanPSMT-4f" x="205.517578"/>
      <use xlink:href="#TimesNewRomanPSMT-2d" x="277.734375"/>
      <use xlink:href="#TimesNewRomanPSMT-57" x="311.035156"/>
      <use xlink:href="#TimesNewRomanPSMT-6f" x="397.419922"/>
      <use xlink:href="#TimesNewRomanPSMT-72" x="447.419922"/>
      <use xlink:href="#TimesNewRomanPSMT-6c" x="480.720703"/>
      <use xlink:href="#TimesNewRomanPSMT-64" x="508.503906"/>
      <use xlink:href="#TimesNewRomanPSMT-76" x="558.503906"/>
      <use xlink:href="#TimesNewRomanPSMT-32" x="608.503906"/>
     </g>
    </g>
    <g id="PathCollection_4">
     <defs>
      <path id="ma09f970399" d="M 0 2.738613 
C 0.726289 2.738613 1.422928 2.450055 1.936492 1.936492 
C 2.450055 1.422928 2.738613 0.726289 2.738613 0 
C 2.738613 -0.726289 2.450055 -1.422928 1.936492 -1.936492 
C 1.422928 -2.450055 0.726289 -2.738613 0 -2.738613 
C -0.726289 -2.738613 -1.422928 -2.450055 -1.936492 -1.936492 
C -2.450055 -1.422928 -2.738613 -0.726289 -2.738613 0 
C -2.738613 0.726289 -2.450055 1.422928 -1.936492 1.936492 
C -1.422928 2.450055 -0.726289 2.738613 0 2.738613 
z
" style="stroke: #000000; stroke-width: 0.5"/>
     </defs>
     <g>
      <use xlink:href="#ma09f970399" x="85.095" y="164.139531" style="fill: #ff7f0e; stroke: #000000; stroke-width: 0.5"/>
     </g>
    </g>
    <g id="text_13">
     <!-- YOLOE (Ours) -->
     <g transform="translate(93.345 167.027031) scale(0.11 -0.11)">
      <defs>
       <path id="TimesNewRomanPSMT-45" d="M 1338 4006 
L 1338 2331 
L 2269 2331 
Q 2631 2331 2753 2441 
Q 2916 2584 2934 2947 
L 3050 2947 
L 3050 1472 
L 2934 1472 
Q 2891 1781 2847 1869 
Q 2791 1978 2662 2040 
Q 2534 2103 2269 2103 
L 1338 2103 
L 1338 706 
Q 1338 425 1363 364 
Q 1388 303 1450 267 
Q 1513 231 1688 231 
L 2406 231 
Q 2766 231 2928 281 
Q 3091 331 3241 478 
Q 3434 672 3638 1063 
L 3763 1063 
L 3397 0 
L 131 0 
L 131 116 
L 281 116 
Q 431 116 566 188 
Q 666 238 702 338 
Q 738 438 738 747 
L 738 3500 
Q 738 3903 656 3997 
Q 544 4122 281 4122 
L 131 4122 
L 131 4238 
L 3397 4238 
L 3444 3309 
L 3322 3309 
Q 3256 3644 3176 3769 
Q 3097 3894 2941 3959 
Q 2816 4006 2500 4006 
L 1338 4006 
z
" transform="scale(0.015625)"/>
       <path id="TimesNewRomanPSMT-75" d="M 2709 2863 
L 2709 1128 
Q 2709 631 2732 520 
Q 2756 409 2807 365 
Q 2859 322 2928 322 
Q 3025 322 3147 375 
L 3191 266 
L 2334 -88 
L 2194 -88 
L 2194 519 
Q 1825 119 1631 15 
Q 1438 -88 1222 -88 
Q 981 -88 804 51 
Q 628 191 559 409 
Q 491 628 491 1028 
L 491 2306 
Q 491 2509 447 2587 
Q 403 2666 317 2708 
Q 231 2750 6 2747 
L 6 2863 
L 1009 2863 
L 1009 947 
Q 1009 547 1148 422 
Q 1288 297 1484 297 
Q 1619 297 1789 381 
Q 1959 466 2194 703 
L 2194 2325 
Q 2194 2569 2105 2655 
Q 2016 2741 1734 2747 
L 1734 2863 
L 2709 2863 
z
" transform="scale(0.015625)"/>
       <path id="TimesNewRomanPSMT-73" d="M 2050 2947 
L 2050 1972 
L 1947 1972 
Q 1828 2431 1642 2597 
Q 1456 2763 1169 2763 
Q 950 2763 815 2647 
Q 681 2531 681 2391 
Q 681 2216 781 2091 
Q 878 1963 1175 1819 
L 1631 1597 
Q 2266 1288 2266 781 
Q 2266 391 1970 151 
Q 1675 -88 1309 -88 
Q 1047 -88 709 6 
Q 606 38 541 38 
Q 469 38 428 -44 
L 325 -44 
L 325 978 
L 428 978 
Q 516 541 762 319 
Q 1009 97 1316 97 
Q 1531 97 1667 223 
Q 1803 350 1803 528 
Q 1803 744 1651 891 
Q 1500 1038 1047 1263 
Q 594 1488 453 1669 
Q 313 1847 313 2119 
Q 313 2472 555 2709 
Q 797 2947 1181 2947 
Q 1350 2947 1591 2875 
Q 1750 2828 1803 2828 
Q 1853 2828 1881 2850 
Q 1909 2872 1947 2947 
L 2050 2947 
z
" transform="scale(0.015625)"/>
      </defs>
      <use xlink:href="#TimesNewRomanPSMT-59"/>
      <use xlink:href="#TimesNewRomanPSMT-4f" x="72.216797"/>
      <use xlink:href="#TimesNewRomanPSMT-4c" x="144.433594"/>
      <use xlink:href="#TimesNewRomanPSMT-4f" x="205.517578"/>
      <use xlink:href="#TimesNewRomanPSMT-45" x="277.734375"/>
      <use xlink:href="#TimesNewRomanPSMT-20" x="338.818359"/>
      <use xlink:href="#TimesNewRomanPSMT-28" x="363.818359"/>
      <use xlink:href="#TimesNewRomanPSMT-4f" x="397.119141"/>
      <use xlink:href="#TimesNewRomanPSMT-75" x="469.335938"/>
      <use xlink:href="#TimesNewRomanPSMT-72" x="519.335938"/>
      <use xlink:href="#TimesNewRomanPSMT-73" x="552.636719"/>
      <use xlink:href="#TimesNewRomanPSMT-29" x="591.552734"/>
     </g>
    </g>
   </g>
  </g>
  <g id="axes_2">
   <g id="patch_9">
    <path d="M 175.68 179.28 
L 299.52 179.28 
L 299.52 10.8 
L 175.68 10.8 
z
" style="fill: #ffffff"/>
   </g>
   <g id="PathCollection_5">
    <path d="M 249.316885 174.360431 
C 250.043174 174.360431 250.739813 174.071873 251.253377 173.55831 
C 251.766941 173.044746 252.055498 172.348107 252.055498 171.621818 
C 252.055498 170.89553 251.766941 170.19889 251.253377 169.685327 
C 250.739813 169.171763 250.043174 168.883205 249.316885 168.883205 
C 248.590597 168.883205 247.893957 169.171763 247.380394 169.685327 
C 246.86683 170.19889 246.578273 170.89553 246.578273 171.621818 
C 246.578273 172.348107 246.86683 173.044746 247.380394 173.55831 
C 247.893957 174.071873 248.590597 174.360431 249.316885 174.360431 
z
" clip-path="url(#p65267eeb43)" style="fill: #1f77b4; stroke: #000000; stroke-width: 0.5"/>
    <path d="M 200.205685 67.811814 
C 200.931973 67.811814 201.628613 67.523257 202.142177 67.009693 
C 202.65574 66.49613 202.944298 65.79949 202.944298 65.073202 
C 202.944298 64.346913 202.65574 63.650274 202.142177 63.13671 
C 201.628613 62.623146 200.931973 62.334589 200.205685 62.334589 
C 199.479396 62.334589 198.782757 62.623146 198.269193 63.13671 
C 197.75563 63.650274 197.467072 64.346913 197.467072 65.073202 
C 197.467072 65.79949 197.75563 66.49613 198.269193 67.009693 
C 198.782757 67.523257 199.479396 67.811814 200.205685 67.811814 
z
" clip-path="url(#p65267eeb43)" style="fill: #1f77b4; stroke: #000000; stroke-width: 0.5"/>
    <path d="M 181.309091 26.524225 
C 182.03538 26.524225 182.732019 26.235668 183.245583 25.722104 
C 183.759146 25.208541 184.047704 24.511901 184.047704 23.785613 
C 184.047704 23.059324 183.759146 22.362685 183.245583 21.849121 
C 182.732019 21.335557 182.03538 21.047 181.309091 21.047 
C 180.582802 21.047 179.886163 21.335557 179.372599 21.849121 
C 178.859036 22.362685 178.570478 23.059324 178.570478 23.785613 
C 178.570478 24.511901 178.859036 25.208541 179.372599 25.722104 
C 179.886163 26.235668 180.582802 26.524225 181.309091 26.524225 
z
" clip-path="url(#p65267eeb43)" style="fill: #1f77b4; stroke: #000000; stroke-width: 0.5"/>
   </g>
   <g id="PathCollection_6">
    <path d="M 293.890909 127.745411 
C 294.617198 127.745411 295.313837 127.456854 295.827401 126.94329 
C 296.340964 126.429726 296.629522 125.733087 296.629522 125.006798 
C 296.629522 124.28051 296.340964 123.58387 295.827401 123.070307 
C 295.313837 122.556743 294.617198 122.268186 293.890909 122.268186 
C 293.16462 122.268186 292.467981 122.556743 291.954417 123.070307 
C 291.440854 123.58387 291.152296 124.28051 291.152296 125.006798 
C 291.152296 125.733087 291.440854 126.429726 291.954417 126.94329 
C 292.467981 127.456854 293.16462 127.745411 293.890909 127.745411 
z
" clip-path="url(#p65267eeb43)" style="fill: #ff7f0e; stroke: #000000; stroke-width: 0.5"/>
    <path d="M 219.551011 65.148099 
C 220.277299 65.148099 220.973939 64.859541 221.487502 64.345978 
C 222.001066 63.832414 222.289623 63.135775 222.289623 62.409486 
C 222.289623 61.683198 222.001066 60.986558 221.487502 60.472994 
C 220.973939 59.959431 220.277299 59.670873 219.551011 59.670873 
C 218.824722 59.670873 218.128082 59.959431 217.614519 60.472994 
C 217.100955 60.986558 216.812398 61.683198 216.812398 62.409486 
C 216.812398 63.135775 217.100955 63.832414 217.614519 64.345978 
C 218.128082 64.859541 218.824722 65.148099 219.551011 65.148099 
z
" clip-path="url(#p65267eeb43)" style="fill: #ff7f0e; stroke: #000000; stroke-width: 0.5"/>
    <path d="M 192.527385 21.196795 
C 193.253674 21.196795 193.950314 20.908237 194.463877 20.394673 
C 194.977441 19.88111 195.265998 19.18447 195.265998 18.458182 
C 195.265998 17.731893 194.977441 17.035254 194.463877 16.52169 
C 193.950314 16.008127 193.253674 15.719569 192.527385 15.719569 
C 191.801097 15.719569 191.104457 16.008127 190.590894 16.52169 
C 190.07733 17.035254 189.788773 17.731893 189.788773 18.458182 
C 189.788773 19.18447 190.07733 19.88111 190.590894 20.394673 
C 191.104457 20.908237 191.801097 21.196795 192.527385 21.196795 
z
" clip-path="url(#p65267eeb43)" style="fill: #ff7f0e; stroke: #000000; stroke-width: 0.5"/>
   </g>
   <g id="matplotlib.axis_3">
    <g id="xtick_4">
     <g id="line2d_19">
      <path d="M 191.280908 179.28 
L 191.280908 10.8 
" clip-path="url(#p65267eeb43)" style="fill: none; stroke-dasharray: 1.85,0.8; stroke-dashoffset: 0; stroke: #b0b0b0; stroke-opacity: 0.7; stroke-width: 0.5"/>
     </g>
     <g id="line2d_20">
      <g>
       <use xlink:href="#me48875a301" x="191.280908" y="179.28" style="stroke: #000000; stroke-width: 0.8"/>
      </g>
     </g>
     <g id="text_14">
      <!-- 100 -->
      <g transform="translate(181.530908 195.306875) scale(0.13 -0.13)">
       <defs>
        <path id="TimesNewRomanPSMT-31" d="M 750 3822 
L 1781 4325 
L 1884 4325 
L 1884 747 
Q 1884 391 1914 303 
Q 1944 216 2037 169 
Q 2131 122 2419 116 
L 2419 0 
L 825 0 
L 825 116 
Q 1125 122 1212 167 
Q 1300 213 1334 289 
Q 1369 366 1369 747 
L 1369 3034 
Q 1369 3497 1338 3628 
Q 1316 3728 1258 3775 
Q 1200 3822 1119 3822 
Q 1003 3822 797 3725 
L 750 3822 
z
" transform="scale(0.015625)"/>
       </defs>
       <use xlink:href="#TimesNewRomanPSMT-31"/>
       <use xlink:href="#TimesNewRomanPSMT-30" x="50"/>
       <use xlink:href="#TimesNewRomanPSMT-30" x="100"/>
      </g>
     </g>
    </g>
    <g id="xtick_5">
     <g id="line2d_21">
      <path d="M 241.139995 179.28 
L 241.139995 10.8 
" clip-path="url(#p65267eeb43)" style="fill: none; stroke-dasharray: 1.85,0.8; stroke-dashoffset: 0; stroke: #b0b0b0; stroke-opacity: 0.7; stroke-width: 0.5"/>
     </g>
     <g id="line2d_22">
      <g>
       <use xlink:href="#me48875a301" x="241.139995" y="179.28" style="stroke: #000000; stroke-width: 0.8"/>
      </g>
     </g>
     <g id="text_15">
      <!-- 200 -->
      <g transform="translate(231.389995 195.306875) scale(0.13 -0.13)">
       <use xlink:href="#TimesNewRomanPSMT-32"/>
       <use xlink:href="#TimesNewRomanPSMT-30" x="50"/>
       <use xlink:href="#TimesNewRomanPSMT-30" x="100"/>
      </g>
     </g>
    </g>
    <g id="xtick_6">
     <g id="line2d_23">
      <path d="M 290.999082 179.28 
L 290.999082 10.8 
" clip-path="url(#p65267eeb43)" style="fill: none; stroke-dasharray: 1.85,0.8; stroke-dashoffset: 0; stroke: #b0b0b0; stroke-opacity: 0.7; stroke-width: 0.5"/>
     </g>
     <g id="line2d_24">
      <g>
       <use xlink:href="#me48875a301" x="290.999082" y="179.28" style="stroke: #000000; stroke-width: 0.8"/>
      </g>
     </g>
     <g id="text_16">
      <!-- 300 -->
      <g transform="translate(281.249082 195.306875) scale(0.13 -0.13)">
       <use xlink:href="#TimesNewRomanPSMT-33"/>
       <use xlink:href="#TimesNewRomanPSMT-30" x="50"/>
       <use xlink:href="#TimesNewRomanPSMT-30" x="100"/>
      </g>
     </g>
    </g>
    <g id="text_17">
     <!-- FPS w/ TensorRT -->
     <g transform="translate(191.609453 211.114531) scale(0.13 -0.13)">
      <defs>
       <path id="TimesNewRomanPSMT-46" d="M 1309 4006 
L 1309 2341 
L 2081 2341 
Q 2347 2341 2470 2458 
Q 2594 2575 2634 2922 
L 2750 2922 
L 2750 1488 
L 2634 1488 
Q 2631 1734 2570 1850 
Q 2509 1966 2401 2023 
Q 2294 2081 2081 2081 
L 1309 2081 
L 1309 750 
Q 1309 428 1350 325 
Q 1381 247 1481 191 
Q 1619 116 1769 116 
L 1922 116 
L 1922 0 
L 103 0 
L 103 116 
L 253 116 
Q 516 116 634 269 
Q 709 369 709 750 
L 709 3488 
Q 709 3809 669 3913 
Q 638 3991 541 4047 
Q 406 4122 253 4122 
L 103 4122 
L 103 4238 
L 3256 4238 
L 3297 3306 
L 3188 3306 
Q 3106 3603 2998 3742 
Q 2891 3881 2733 3943 
Q 2575 4006 2244 4006 
L 1309 4006 
z
" transform="scale(0.015625)"/>
       <path id="TimesNewRomanPSMT-77" d="M 41 2863 
L 1241 2863 
L 1241 2747 
Q 1075 2734 1023 2687 
Q 972 2641 972 2553 
Q 972 2456 1025 2319 
L 1638 672 
L 2253 2013 
L 2091 2434 
Q 2016 2622 1894 2694 
Q 1825 2738 1638 2747 
L 1638 2863 
L 3000 2863 
L 3000 2747 
Q 2775 2738 2681 2666 
Q 2619 2616 2619 2506 
Q 2619 2444 2644 2378 
L 3294 734 
L 3897 2319 
Q 3959 2488 3959 2588 
Q 3959 2647 3898 2694 
Q 3838 2741 3659 2747 
L 3659 2863 
L 4563 2863 
L 4563 2747 
Q 4291 2706 4163 2378 
L 3206 -88 
L 3078 -88 
L 2363 1741 
L 1528 -88 
L 1413 -88 
L 494 2319 
Q 403 2547 315 2626 
Q 228 2706 41 2747 
L 41 2863 
z
" transform="scale(0.015625)"/>
       <path id="TimesNewRomanPSMT-2f" d="M 1794 4444 
L 259 -88 
L 9 -88 
L 1544 4444 
L 1794 4444 
z
" transform="scale(0.015625)"/>
       <path id="TimesNewRomanPSMT-52" d="M 4325 0 
L 3194 0 
L 1759 1981 
Q 1600 1975 1500 1975 
Q 1459 1975 1412 1976 
Q 1366 1978 1316 1981 
L 1316 750 
Q 1316 350 1403 253 
Q 1522 116 1759 116 
L 1925 116 
L 1925 0 
L 109 0 
L 109 116 
L 269 116 
Q 538 116 653 291 
Q 719 388 719 750 
L 719 3488 
Q 719 3888 631 3984 
Q 509 4122 269 4122 
L 109 4122 
L 109 4238 
L 1653 4238 
Q 2328 4238 2648 4139 
Q 2969 4041 3192 3777 
Q 3416 3513 3416 3147 
Q 3416 2756 3161 2468 
Q 2906 2181 2372 2063 
L 3247 847 
Q 3547 428 3762 290 
Q 3978 153 4325 116 
L 4325 0 
z
M 1316 2178 
Q 1375 2178 1419 2176 
Q 1463 2175 1491 2175 
Q 2097 2175 2405 2437 
Q 2713 2700 2713 3106 
Q 2713 3503 2464 3751 
Q 2216 4000 1806 4000 
Q 1625 4000 1316 3941 
L 1316 2178 
z
" transform="scale(0.015625)"/>
      </defs>
      <use xlink:href="#TimesNewRomanPSMT-46"/>
      <use xlink:href="#TimesNewRomanPSMT-50" x="55.615234"/>
      <use xlink:href="#TimesNewRomanPSMT-53" x="111.230469"/>
      <use xlink:href="#TimesNewRomanPSMT-20" x="166.845703"/>
      <use xlink:href="#TimesNewRomanPSMT-77" x="191.845703"/>
      <use xlink:href="#TimesNewRomanPSMT-2f" x="264.0625"/>
      <use xlink:href="#TimesNewRomanPSMT-20" x="291.845703"/>
      <use xlink:href="#TimesNewRomanPSMT-54" x="315.095703"/>
      <use xlink:href="#TimesNewRomanPSMT-65" x="369.179688"/>
      <use xlink:href="#TimesNewRomanPSMT-6e" x="413.564453"/>
      <use xlink:href="#TimesNewRomanPSMT-73" x="463.564453"/>
      <use xlink:href="#TimesNewRomanPSMT-6f" x="502.480469"/>
      <use xlink:href="#TimesNewRomanPSMT-72" x="552.480469"/>
      <use xlink:href="#TimesNewRomanPSMT-52" x="585.78125"/>
      <use xlink:href="#TimesNewRomanPSMT-54" x="646.480469"/>
     </g>
    </g>
   </g>
   <g id="matplotlib.axis_4">
    <g id="ytick_6">
     <g id="line2d_25">
      <path d="M 175.68 163.630672 
L 299.52 163.630672 
" clip-path="url(#p65267eeb43)" style="fill: none; stroke-dasharray: 1.85,0.8; stroke-dashoffset: 0; stroke: #b0b0b0; stroke-opacity: 0.7; stroke-width: 0.5"/>
     </g>
     <g id="line2d_26">
      <g>
       <use xlink:href="#m40106cce0d" x="175.68" y="163.630672" style="stroke: #000000; stroke-width: 0.8"/>
      </g>
     </g>
    </g>
    <g id="ytick_7">
     <g id="line2d_27">
      <path d="M 175.68 130.334229 
L 299.52 130.334229 
" clip-path="url(#p65267eeb43)" style="fill: none; stroke-dasharray: 1.85,0.8; stroke-dashoffset: 0; stroke: #b0b0b0; stroke-opacity: 0.7; stroke-width: 0.5"/>
     </g>
     <g id="line2d_28">
      <g>
       <use xlink:href="#m40106cce0d" x="175.68" y="130.334229" style="stroke: #000000; stroke-width: 0.8"/>
      </g>
     </g>
    </g>
    <g id="ytick_8">
     <g id="line2d_29">
      <path d="M 175.68 97.037787 
L 299.52 97.037787 
" clip-path="url(#p65267eeb43)" style="fill: none; stroke-dasharray: 1.85,0.8; stroke-dashoffset: 0; stroke: #b0b0b0; stroke-opacity: 0.7; stroke-width: 0.5"/>
     </g>
     <g id="line2d_30">
      <g>
       <use xlink:href="#m40106cce0d" x="175.68" y="97.037787" style="stroke: #000000; stroke-width: 0.8"/>
      </g>
     </g>
    </g>
    <g id="ytick_9">
     <g id="line2d_31">
      <path d="M 175.68 63.741344 
L 299.52 63.741344 
" clip-path="url(#p65267eeb43)" style="fill: none; stroke-dasharray: 1.85,0.8; stroke-dashoffset: 0; stroke: #b0b0b0; stroke-opacity: 0.7; stroke-width: 0.5"/>
     </g>
     <g id="line2d_32">
      <g>
       <use xlink:href="#m40106cce0d" x="175.68" y="63.741344" style="stroke: #000000; stroke-width: 0.8"/>
      </g>
     </g>
    </g>
    <g id="ytick_10">
     <g id="line2d_33">
      <path d="M 175.68 30.444901 
L 299.52 30.444901 
" clip-path="url(#p65267eeb43)" style="fill: none; stroke-dasharray: 1.85,0.8; stroke-dashoffset: 0; stroke: #b0b0b0; stroke-opacity: 0.7; stroke-width: 0.5"/>
     </g>
     <g id="line2d_34">
      <g>
       <use xlink:href="#m40106cce0d" x="175.68" y="30.444901" style="stroke: #000000; stroke-width: 0.8"/>
      </g>
     </g>
    </g>
   </g>
   <g id="line2d_35">
    <path d="M 249.316885 171.621818 
L 200.205685 65.073202 
L 181.309091 23.785613 
" clip-path="url(#p65267eeb43)" style="fill: none; stroke-dasharray: 5.55,2.4; stroke-dashoffset: 0; stroke: #1f77b4; stroke-opacity: 0.5; stroke-width: 1.5"/>
   </g>
   <g id="line2d_36">
    <path d="M 293.890909 125.006798 
L 219.551011 62.409486 
L 192.527385 18.458182 
" clip-path="url(#p65267eeb43)" style="fill: none; stroke-dasharray: 5.55,2.4; stroke-dashoffset: 0; stroke: #ff7f0e; stroke-opacity: 0.5; stroke-width: 1.5"/>
   </g>
   <g id="patch_10">
    <path d="M 175.68 179.28 
L 175.68 10.8 
" style="fill: none; stroke: #000000; stroke-width: 1.5; stroke-linejoin: miter; stroke-linecap: square"/>
   </g>
   <g id="patch_11">
    <path d="M 299.52 179.28 
L 299.52 10.8 
" style="fill: none; stroke: #000000; stroke-width: 1.5; stroke-linejoin: miter; stroke-linecap: square"/>
   </g>
   <g id="patch_12">
    <path d="M 175.68 179.28 
L 299.52 179.28 
" style="fill: none; stroke: #000000; stroke-width: 1.5; stroke-linejoin: miter; stroke-linecap: square"/>
   </g>
   <g id="patch_13">
    <path d="M 175.68 10.8 
L 299.52 10.8 
" style="fill: none; stroke: #000000; stroke-width: 1.5; stroke-linejoin: miter; stroke-linecap: square"/>
   </g>
   <g id="patch_14">
    <path d="M 250.599588 170.179325 
Q 271.554289 148.314046 291.348616 127.659566 
" style="fill: none; stroke-dasharray: 5.55,2.4; stroke-dashoffset: 0; stroke: #ff0000; stroke-width: 1.5; stroke-linecap: round"/>
    <path d="M 285.873516 129.614889 
L 291.348616 127.659566 
L 289.627814 133.212839 
" style="fill: none; stroke-dasharray: 5.55,2.4; stroke-dashoffset: 0; stroke: #ff0000; stroke-width: 1.5; stroke-linecap: round"/>
   </g>
   <g id="text_18">
    <!-- 1.4$\times$ Speedup -->
    <g style="fill: #ff0000" transform="translate(239.431123 167.067625) rotate(-45) scale(0.12 -0.12)">
     <defs>
      <path id="TimesNewRomanPS-BoldMT-31" d="M 2084 4325 
L 2084 859 
Q 2084 469 2118 361 
Q 2153 253 2262 184 
Q 2372 116 2613 116 
L 2709 116 
L 2709 0 
L 478 0 
L 478 116 
L 591 116 
Q 863 116 978 178 
Q 1094 241 1134 350 
Q 1175 459 1175 859 
L 1175 3056 
Q 1175 3350 1147 3423 
Q 1119 3497 1042 3548 
Q 966 3600 866 3600 
Q 706 3600 478 3500 
L 422 3613 
L 1981 4325 
L 2084 4325 
z
" transform="scale(0.015625)"/>
      <path id="TimesNewRomanPS-BoldMT-2e" d="M 800 963 
Q 1019 963 1170 809 
Q 1322 656 1322 441 
Q 1322 225 1169 73 
Q 1016 -78 800 -78 
Q 584 -78 432 73 
Q 281 225 281 441 
Q 281 656 432 809 
Q 584 963 800 963 
z
" transform="scale(0.015625)"/>
      <path id="TimesNewRomanPS-BoldMT-34" d="M 159 1597 
L 2172 4325 
L 2553 4325 
L 2553 1597 
L 2941 1597 
L 2941 950 
L 2553 950 
L 2553 0 
L 1694 0 
L 1694 950 
L 159 950 
L 159 1597 
z
M 463 1597 
L 1694 1597 
L 1694 3269 
L 463 1597 
z
" transform="scale(0.015625)"/>
      <path id="TimesNewRomanPS-BoldMT-53" d="M 3006 4334 
L 3041 2922 
L 2913 2922 
Q 2822 3453 2467 3776 
Q 2113 4100 1700 4100 
Q 1381 4100 1195 3929 
Q 1009 3759 1009 3538 
Q 1009 3397 1075 3288 
Q 1166 3141 1366 2997 
Q 1513 2894 2044 2631 
Q 2788 2266 3047 1941 
Q 3303 1616 3303 1197 
Q 3303 666 2889 283 
Q 2475 -100 1838 -100 
Q 1638 -100 1459 -59 
Q 1281 -19 1013 94 
Q 863 156 766 156 
Q 684 156 593 93 
Q 503 31 447 -97 
L 331 -97 
L 331 1503 
L 447 1503 
Q 584 828 976 473 
Q 1369 119 1822 119 
Q 2172 119 2380 309 
Q 2588 500 2588 753 
Q 2588 903 2508 1043 
Q 2428 1184 2265 1311 
Q 2103 1438 1691 1641 
Q 1113 1925 859 2125 
Q 606 2325 470 2572 
Q 334 2819 334 3116 
Q 334 3622 706 3978 
Q 1078 4334 1644 4334 
Q 1850 4334 2044 4284 
Q 2191 4247 2402 4145 
Q 2613 4044 2697 4044 
Q 2778 4044 2825 4094 
Q 2872 4144 2913 4334 
L 3006 4334 
z
" transform="scale(0.015625)"/>
      <path id="TimesNewRomanPS-BoldMT-70" d="M 1347 297 
L 1347 -791 
Q 1347 -1016 1383 -1097 
Q 1419 -1178 1494 -1215 
Q 1569 -1253 1788 -1253 
L 1788 -1369 
L 122 -1369 
L 122 -1253 
Q 316 -1247 409 -1144 
Q 472 -1072 472 -772 
L 472 2313 
Q 472 2622 400 2708 
Q 328 2794 122 2806 
L 122 2922 
L 1347 2922 
L 1347 2538 
Q 1500 2763 1659 2863 
Q 1888 3009 2156 3009 
Q 2478 3009 2742 2806 
Q 3006 2603 3143 2245 
Q 3281 1888 3281 1475 
Q 3281 1031 3139 664 
Q 2997 297 2726 104 
Q 2456 -88 2125 -88 
Q 1884 -88 1675 19 
Q 1519 100 1347 297 
z
M 1347 613 
Q 1616 231 1922 231 
Q 2091 231 2200 409 
Q 2363 672 2363 1409 
Q 2363 2166 2184 2444 
Q 2066 2628 1866 2628 
Q 1550 2628 1347 2172 
L 1347 613 
z
" transform="scale(0.015625)"/>
      <path id="TimesNewRomanPS-BoldMT-64" d="M 3056 4238 
L 3056 875 
Q 3056 534 3075 472 
Q 3100 369 3170 319 
Q 3241 269 3416 256 
L 3416 153 
L 2181 -88 
L 2181 375 
Q 1959 106 1786 9 
Q 1613 -88 1394 -88 
Q 834 -88 509 413 
Q 247 819 247 1409 
Q 247 1881 409 2254 
Q 572 2628 855 2818 
Q 1138 3009 1463 3009 
Q 1672 3009 1834 2928 
Q 1997 2847 2181 2644 
L 2181 3525 
Q 2181 3859 2153 3928 
Q 2116 4019 2041 4062 
Q 1966 4106 1759 4106 
L 1759 4238 
L 3056 4238 
z
M 2181 2256 
Q 1950 2700 1616 2700 
Q 1500 2700 1425 2638 
Q 1309 2541 1236 2297 
Q 1163 2053 1163 1550 
Q 1163 997 1244 731 
Q 1325 466 1466 347 
Q 1538 288 1663 288 
Q 1938 288 2181 719 
L 2181 2256 
z
" transform="scale(0.015625)"/>
      <path id="TimesNewRomanPS-BoldMT-75" d="M 3038 2922 
L 3038 634 
Q 3038 300 3100 217 
Q 3163 134 3353 113 
L 3353 0 
L 2163 0 
L 2163 391 
Q 1953 141 1743 26 
Q 1534 -88 1275 -88 
Q 1028 -88 836 64 
Q 644 216 578 419 
Q 513 622 513 1128 
L 513 2288 
Q 513 2619 452 2700 
Q 391 2781 197 2806 
L 197 2922 
L 1388 2922 
L 1388 925 
Q 1388 613 1417 522 
Q 1447 431 1511 384 
Q 1575 338 1659 338 
Q 1772 338 1863 397 
Q 1988 478 2163 725 
L 2163 2288 
Q 2163 2619 2102 2700 
Q 2041 2781 1847 2806 
L 1847 2922 
L 3038 2922 
z
" transform="scale(0.015625)"/>
     </defs>
     <use xlink:href="#TimesNewRomanPS-BoldMT-31" transform="translate(0 0.28125)"/>
     <use xlink:href="#TimesNewRomanPS-BoldMT-2e" transform="translate(50 0.28125)"/>
     <use xlink:href="#TimesNewRomanPS-BoldMT-34" transform="translate(75 0.28125)"/>
     <use xlink:href="#DejaVuSans-d7" transform="translate(125 0.28125)"/>
     <use xlink:href="#TimesNewRomanPS-BoldMT-20" transform="translate(208.789062 0.28125)"/>
     <use xlink:href="#TimesNewRomanPS-BoldMT-53" transform="translate(233.789062 0.28125)"/>
     <use xlink:href="#TimesNewRomanPS-BoldMT-70" transform="translate(289.404297 0.28125)"/>
     <use xlink:href="#TimesNewRomanPS-BoldMT-65" transform="translate(345.019531 0.28125)"/>
     <use xlink:href="#TimesNewRomanPS-BoldMT-65" transform="translate(389.404297 0.28125)"/>
     <use xlink:href="#TimesNewRomanPS-BoldMT-64" transform="translate(433.789062 0.28125)"/>
     <use xlink:href="#TimesNewRomanPS-BoldMT-75" transform="translate(489.404297 0.28125)"/>
     <use xlink:href="#TimesNewRomanPS-BoldMT-70" transform="translate(545.019531 0.28125)"/>
    </g>
   </g>
   <g id="legend_2">
    <g id="patch_15">
     <path d="M 203.985 50.705938 
L 291.82 50.705938 
Q 294.02 50.705938 294.02 48.505938 
L 294.02 18.5 
Q 294.02 16.3 291.82 16.3 
L 203.985 16.3 
Q 201.785 16.3 201.785 18.5 
L 201.785 48.505938 
Q 201.785 50.705938 203.985 50.705938 
z
" style="fill: #ffffff; opacity: 0.8; stroke: #cccccc; stroke-linejoin: miter"/>
    </g>
    <g id="PathCollection_7">
     <g>
      <use xlink:href="#m4854515810" x="208.935" y="25.5125" style="fill: #1f77b4; stroke: #000000; stroke-width: 0.5"/>
     </g>
    </g>
    <g id="text_19">
     <!-- YOLO-Worldv2 -->
     <g transform="translate(217.185 28.4) scale(0.11 -0.11)">
      <use xlink:href="#TimesNewRomanPSMT-59"/>
      <use xlink:href="#TimesNewRomanPSMT-4f" x="72.216797"/>
      <use xlink:href="#TimesNewRomanPSMT-4c" x="144.433594"/>
      <use xlink:href="#TimesNewRomanPSMT-4f" x="205.517578"/>
      <use xlink:href="#TimesNewRomanPSMT-2d" x="277.734375"/>
      <use xlink:href="#TimesNewRomanPSMT-57" x="311.035156"/>
      <use xlink:href="#TimesNewRomanPSMT-6f" x="397.419922"/>
      <use xlink:href="#TimesNewRomanPSMT-72" x="447.419922"/>
      <use xlink:href="#TimesNewRomanPSMT-6c" x="480.720703"/>
      <use xlink:href="#TimesNewRomanPSMT-64" x="508.503906"/>
      <use xlink:href="#TimesNewRomanPSMT-76" x="558.503906"/>
      <use xlink:href="#TimesNewRomanPSMT-32" x="608.503906"/>
     </g>
    </g>
    <g id="PathCollection_8">
     <g>
      <use xlink:href="#ma09f970399" x="208.935" y="41.065469" style="fill: #ff7f0e; stroke: #000000; stroke-width: 0.5"/>
     </g>
    </g>
    <g id="text_20">
     <!-- YOLOE (Ours) -->
     <g transform="translate(217.185 43.952969) scale(0.11 -0.11)">
      <use xlink:href="#TimesNewRomanPSMT-59"/>
      <use xlink:href="#TimesNewRomanPSMT-4f" x="72.216797"/>
      <use xlink:href="#TimesNewRomanPSMT-4c" x="144.433594"/>
      <use xlink:href="#TimesNewRomanPSMT-4f" x="205.517578"/>
      <use xlink:href="#TimesNewRomanPSMT-45" x="277.734375"/>
      <use xlink:href="#TimesNewRomanPSMT-20" x="338.818359"/>
      <use xlink:href="#TimesNewRomanPSMT-28" x="363.818359"/>
      <use xlink:href="#TimesNewRomanPSMT-4f" x="397.119141"/>
      <use xlink:href="#TimesNewRomanPSMT-75" x="469.335938"/>
      <use xlink:href="#TimesNewRomanPSMT-72" x="519.335938"/>
      <use xlink:href="#TimesNewRomanPSMT-73" x="552.636719"/>
      <use xlink:href="#TimesNewRomanPSMT-29" x="591.552734"/>
     </g>
    </g>
   </g>
  </g>
  <g id="axes_3">
   <g id="patch_16">
    <path d="M 299.52 179.28 
L 423.36 179.28 
L 423.36 10.8 
L 299.52 10.8 
z
" style="fill: #ffffff"/>
   </g>
   <g id="PathCollection_9">
    <path d="M 376.646549 174.360431 
C 377.372838 174.360431 378.069477 174.071873 378.583041 173.55831 
C 379.096604 173.044746 379.385162 172.348107 379.385162 171.621818 
C 379.385162 170.89553 379.096604 170.19889 378.583041 169.685327 
C 378.069477 169.171763 377.372838 168.883205 376.646549 168.883205 
C 375.92026 168.883205 375.223621 169.171763 374.710057 169.685327 
C 374.196494 170.19889 373.907936 170.89553 373.907936 171.621818 
C 373.907936 172.348107 374.196494 173.044746 374.710057 173.55831 
C 375.223621 174.071873 375.92026 174.360431 376.646549 174.360431 
z
" clip-path="url(#p8e4f02908c)" style="fill: #1f77b4; stroke: #000000; stroke-width: 0.5"/>
    <path d="M 337.42966 67.811814 
C 338.155948 67.811814 338.852588 67.523257 339.366151 67.009693 
C 339.879715 66.49613 340.168272 65.79949 340.168272 65.073202 
C 340.168272 64.346913 339.879715 63.650274 339.366151 63.13671 
C 338.852588 62.623146 338.155948 62.334589 337.42966 62.334589 
C 336.703371 62.334589 336.006732 62.623146 335.493168 63.13671 
C 334.979604 63.650274 334.691047 64.346913 334.691047 65.073202 
C 334.691047 65.79949 334.979604 66.49613 335.493168 67.009693 
C 336.006732 67.523257 336.703371 67.811814 337.42966 67.811814 
z
" clip-path="url(#p8e4f02908c)" style="fill: #1f77b4; stroke: #000000; stroke-width: 0.5"/>
    <path d="M 305.149091 26.524225 
C 305.87538 26.524225 306.572019 26.235668 307.085583 25.722104 
C 307.599146 25.208541 307.887704 24.511901 307.887704 23.785613 
C 307.887704 23.059324 307.599146 22.362685 307.085583 21.849121 
C 306.572019 21.335557 305.87538 21.047 305.149091 21.047 
C 304.422802 21.047 303.726163 21.335557 303.212599 21.849121 
C 302.699036 22.362685 302.410478 23.059324 302.410478 23.785613 
C 302.410478 24.511901 302.699036 25.208541 303.212599 25.722104 
C 303.726163 26.235668 304.422802 26.524225 305.149091 26.524225 
z
" clip-path="url(#p8e4f02908c)" style="fill: #1f77b4; stroke: #000000; stroke-width: 0.5"/>
   </g>
   <g id="PathCollection_10">
    <path d="M 417.730909 127.745411 
C 418.457198 127.745411 419.153837 127.456854 419.667401 126.94329 
C 420.180964 126.429726 420.469522 125.733087 420.469522 125.006798 
C 420.469522 124.28051 420.180964 123.58387 419.667401 123.070307 
C 419.153837 122.556743 418.457198 122.268186 417.730909 122.268186 
C 417.00462 122.268186 416.307981 122.556743 415.794417 123.070307 
C 415.280854 123.58387 414.992296 124.28051 414.992296 125.006798 
C 414.992296 125.733087 415.280854 126.429726 415.794417 126.94329 
C 416.307981 127.456854 417.00462 127.745411 417.730909 127.745411 
z
" clip-path="url(#p8e4f02908c)" style="fill: #ff7f0e; stroke: #000000; stroke-width: 0.5"/>
    <path d="M 357.438277 65.148099 
C 358.164565 65.148099 358.861205 64.859541 359.374768 64.345978 
C 359.888332 63.832414 360.176889 63.135775 360.176889 62.409486 
C 360.176889 61.683198 359.888332 60.986558 359.374768 60.472994 
C 358.861205 59.959431 358.164565 59.670873 357.438277 59.670873 
C 356.711988 59.670873 356.015349 59.959431 355.501785 60.472994 
C 354.988221 60.986558 354.699664 61.683198 354.699664 62.409486 
C 354.699664 63.135775 354.988221 63.832414 355.501785 64.345978 
C 356.015349 64.859541 356.711988 65.148099 357.438277 65.148099 
z
" clip-path="url(#p8e4f02908c)" style="fill: #ff7f0e; stroke: #000000; stroke-width: 0.5"/>
    <path d="M 318.75495 21.196795 
C 319.481239 21.196795 320.177879 20.908237 320.691442 20.394673 
C 321.205006 19.88111 321.493563 19.18447 321.493563 18.458182 
C 321.493563 17.731893 321.205006 17.035254 320.691442 16.52169 
C 320.177879 16.008127 319.481239 15.719569 318.75495 15.719569 
C 318.028662 15.719569 317.332022 16.008127 316.818459 16.52169 
C 316.304895 17.035254 316.016338 17.731893 316.016338 18.458182 
C 316.016338 19.18447 316.304895 19.88111 316.818459 20.394673 
C 317.332022 20.908237 318.028662 21.196795 318.75495 21.196795 
z
" clip-path="url(#p8e4f02908c)" style="fill: #ff7f0e; stroke: #000000; stroke-width: 0.5"/>
   </g>
   <g id="matplotlib.axis_5">
    <g id="xtick_7">
     <g id="line2d_37">
      <path d="M 352.90299 179.28 
L 352.90299 10.8 
" clip-path="url(#p8e4f02908c)" style="fill: none; stroke-dasharray: 1.85,0.8; stroke-dashoffset: 0; stroke: #b0b0b0; stroke-opacity: 0.7; stroke-width: 0.5"/>
     </g>
     <g id="line2d_38">
      <g>
       <use xlink:href="#me48875a301" x="352.90299" y="179.28" style="stroke: #000000; stroke-width: 0.8"/>
      </g>
     </g>
     <g id="text_21">
      <!-- 40 -->
      <g transform="translate(346.40299 195.306875) scale(0.13 -0.13)">
       <defs>
        <path id="TimesNewRomanPSMT-34" d="M 2978 1563 
L 2978 1119 
L 2409 1119 
L 2409 0 
L 1894 0 
L 1894 1119 
L 100 1119 
L 100 1519 
L 2066 4325 
L 2409 4325 
L 2409 1563 
L 2978 1563 
z
M 1894 1563 
L 1894 3666 
L 406 1563 
L 1894 1563 
z
" transform="scale(0.015625)"/>
       </defs>
       <use xlink:href="#TimesNewRomanPSMT-34"/>
       <use xlink:href="#TimesNewRomanPSMT-30" x="50"/>
      </g>
     </g>
    </g>
    <g id="xtick_8">
     <g id="line2d_39">
      <path d="M 406.259302 179.28 
L 406.259302 10.8 
" clip-path="url(#p8e4f02908c)" style="fill: none; stroke-dasharray: 1.85,0.8; stroke-dashoffset: 0; stroke: #b0b0b0; stroke-opacity: 0.7; stroke-width: 0.5"/>
     </g>
     <g id="line2d_40">
      <g>
       <use xlink:href="#me48875a301" x="406.259302" y="179.28" style="stroke: #000000; stroke-width: 0.8"/>
      </g>
     </g>
     <g id="text_22">
      <!-- 60 -->
      <g transform="translate(399.759302 195.306875) scale(0.13 -0.13)">
       <defs>
        <path id="TimesNewRomanPSMT-36" d="M 2869 4325 
L 2869 4209 
Q 2456 4169 2195 4045 
Q 1934 3922 1679 3669 
Q 1425 3416 1258 3105 
Q 1091 2794 978 2366 
Q 1428 2675 1881 2675 
Q 2316 2675 2634 2325 
Q 2953 1975 2953 1425 
Q 2953 894 2631 456 
Q 2244 -75 1606 -75 
Q 1172 -75 869 213 
Q 275 772 275 1663 
Q 275 2231 503 2743 
Q 731 3256 1154 3653 
Q 1578 4050 1965 4187 
Q 2353 4325 2688 4325 
L 2869 4325 
z
M 925 2138 
Q 869 1716 869 1456 
Q 869 1156 980 804 
Q 1091 453 1309 247 
Q 1469 100 1697 100 
Q 1969 100 2183 356 
Q 2397 613 2397 1088 
Q 2397 1622 2184 2012 
Q 1972 2403 1581 2403 
Q 1463 2403 1327 2353 
Q 1191 2303 925 2138 
z
" transform="scale(0.015625)"/>
       </defs>
       <use xlink:href="#TimesNewRomanPSMT-36"/>
       <use xlink:href="#TimesNewRomanPSMT-30" x="50"/>
      </g>
     </g>
    </g>
    <g id="text_23">
     <!-- FPS w/ CoreML -->
     <g transform="translate(318.460781 211.114531) scale(0.13 -0.13)">
      <defs>
       <path id="TimesNewRomanPSMT-43" d="M 3853 4334 
L 3950 2894 
L 3853 2894 
Q 3659 3541 3300 3825 
Q 2941 4109 2438 4109 
Q 2016 4109 1675 3895 
Q 1334 3681 1139 3212 
Q 944 2744 944 2047 
Q 944 1472 1128 1050 
Q 1313 628 1683 403 
Q 2053 178 2528 178 
Q 2941 178 3256 354 
Q 3572 531 3950 1056 
L 4047 994 
Q 3728 428 3303 165 
Q 2878 -97 2294 -97 
Q 1241 -97 663 684 
Q 231 1266 231 2053 
Q 231 2688 515 3219 
Q 800 3750 1298 4042 
Q 1797 4334 2388 4334 
Q 2847 4334 3294 4109 
Q 3425 4041 3481 4041 
Q 3566 4041 3628 4100 
Q 3709 4184 3744 4334 
L 3853 4334 
z
" transform="scale(0.015625)"/>
       <path id="TimesNewRomanPSMT-4d" d="M 2619 0 
L 981 3566 
L 981 734 
Q 981 344 1066 247 
Q 1181 116 1431 116 
L 1581 116 
L 1581 0 
L 106 0 
L 106 116 
L 256 116 
Q 525 116 638 278 
Q 706 378 706 734 
L 706 3503 
Q 706 3784 644 3909 
Q 600 4000 483 4061 
Q 366 4122 106 4122 
L 106 4238 
L 1306 4238 
L 2844 922 
L 4356 4238 
L 5556 4238 
L 5556 4122 
L 5409 4122 
Q 5138 4122 5025 3959 
Q 4956 3859 4956 3503 
L 4956 734 
Q 4956 344 5044 247 
Q 5159 116 5409 116 
L 5556 116 
L 5556 0 
L 3756 0 
L 3756 116 
L 3906 116 
Q 4178 116 4288 278 
Q 4356 378 4356 734 
L 4356 3566 
L 2722 0 
L 2619 0 
z
" transform="scale(0.015625)"/>
      </defs>
      <use xlink:href="#TimesNewRomanPSMT-46"/>
      <use xlink:href="#TimesNewRomanPSMT-50" x="55.615234"/>
      <use xlink:href="#TimesNewRomanPSMT-53" x="111.230469"/>
      <use xlink:href="#TimesNewRomanPSMT-20" x="166.845703"/>
      <use xlink:href="#TimesNewRomanPSMT-77" x="191.845703"/>
      <use xlink:href="#TimesNewRomanPSMT-2f" x="264.0625"/>
      <use xlink:href="#TimesNewRomanPSMT-20" x="291.845703"/>
      <use xlink:href="#TimesNewRomanPSMT-43" x="316.845703"/>
      <use xlink:href="#TimesNewRomanPSMT-6f" x="383.544922"/>
      <use xlink:href="#TimesNewRomanPSMT-72" x="433.544922"/>
      <use xlink:href="#TimesNewRomanPSMT-65" x="466.845703"/>
      <use xlink:href="#TimesNewRomanPSMT-4d" x="511.230469"/>
      <use xlink:href="#TimesNewRomanPSMT-4c" x="600.146484"/>
     </g>
    </g>
   </g>
   <g id="matplotlib.axis_6">
    <g id="ytick_11">
     <g id="line2d_41">
      <path d="M 299.52 163.630672 
L 423.36 163.630672 
" clip-path="url(#p8e4f02908c)" style="fill: none; stroke-dasharray: 1.85,0.8; stroke-dashoffset: 0; stroke: #b0b0b0; stroke-opacity: 0.7; stroke-width: 0.5"/>
     </g>
     <g id="line2d_42">
      <g>
       <use xlink:href="#m40106cce0d" x="299.52" y="163.630672" style="stroke: #000000; stroke-width: 0.8"/>
      </g>
     </g>
    </g>
    <g id="ytick_12">
     <g id="line2d_43">
      <path d="M 299.52 130.334229 
L 423.36 130.334229 
" clip-path="url(#p8e4f02908c)" style="fill: none; stroke-dasharray: 1.85,0.8; stroke-dashoffset: 0; stroke: #b0b0b0; stroke-opacity: 0.7; stroke-width: 0.5"/>
     </g>
     <g id="line2d_44">
      <g>
       <use xlink:href="#m40106cce0d" x="299.52" y="130.334229" style="stroke: #000000; stroke-width: 0.8"/>
      </g>
     </g>
    </g>
    <g id="ytick_13">
     <g id="line2d_45">
      <path d="M 299.52 97.037787 
L 423.36 97.037787 
" clip-path="url(#p8e4f02908c)" style="fill: none; stroke-dasharray: 1.85,0.8; stroke-dashoffset: 0; stroke: #b0b0b0; stroke-opacity: 0.7; stroke-width: 0.5"/>
     </g>
     <g id="line2d_46">
      <g>
       <use xlink:href="#m40106cce0d" x="299.52" y="97.037787" style="stroke: #000000; stroke-width: 0.8"/>
      </g>
     </g>
    </g>
    <g id="ytick_14">
     <g id="line2d_47">
      <path d="M 299.52 63.741344 
L 423.36 63.741344 
" clip-path="url(#p8e4f02908c)" style="fill: none; stroke-dasharray: 1.85,0.8; stroke-dashoffset: 0; stroke: #b0b0b0; stroke-opacity: 0.7; stroke-width: 0.5"/>
     </g>
     <g id="line2d_48">
      <g>
       <use xlink:href="#m40106cce0d" x="299.52" y="63.741344" style="stroke: #000000; stroke-width: 0.8"/>
      </g>
     </g>
    </g>
    <g id="ytick_15">
     <g id="line2d_49">
      <path d="M 299.52 30.444901 
L 423.36 30.444901 
" clip-path="url(#p8e4f02908c)" style="fill: none; stroke-dasharray: 1.85,0.8; stroke-dashoffset: 0; stroke: #b0b0b0; stroke-opacity: 0.7; stroke-width: 0.5"/>
     </g>
     <g id="line2d_50">
      <g>
       <use xlink:href="#m40106cce0d" x="299.52" y="30.444901" style="stroke: #000000; stroke-width: 0.8"/>
      </g>
     </g>
    </g>
   </g>
   <g id="line2d_51">
    <path d="M 376.646549 171.621818 
L 337.42966 65.073202 
L 305.149091 23.785613 
" clip-path="url(#p8e4f02908c)" style="fill: none; stroke-dasharray: 5.55,2.4; stroke-dashoffset: 0; stroke: #1f77b4; stroke-opacity: 0.5; stroke-width: 1.5"/>
   </g>
   <g id="line2d_52">
    <path d="M 417.730909 125.006798 
L 357.438277 62.409486 
L 318.75495 18.458182 
" clip-path="url(#p8e4f02908c)" style="fill: none; stroke-dasharray: 5.55,2.4; stroke-dashoffset: 0; stroke: #ff7f0e; stroke-opacity: 0.5; stroke-width: 1.5"/>
   </g>
   <g id="patch_17">
    <path d="M 299.52 179.28 
L 299.52 10.8 
" style="fill: none; stroke: #000000; stroke-width: 1.5; stroke-linejoin: miter; stroke-linecap: square"/>
   </g>
   <g id="patch_18">
    <path d="M 423.36 179.28 
L 423.36 10.8 
" style="fill: none; stroke: #000000; stroke-width: 1.5; stroke-linejoin: miter; stroke-linecap: square"/>
   </g>
   <g id="patch_19">
    <path d="M 299.52 179.28 
L 423.36 179.28 
" style="fill: none; stroke: #000000; stroke-width: 1.5; stroke-linejoin: miter; stroke-linecap: square"/>
   </g>
   <g id="patch_20">
    <path d="M 299.52 10.8 
L 423.36 10.8 
" style="fill: none; stroke: #000000; stroke-width: 1.5; stroke-linejoin: miter; stroke-linecap: square"/>
   </g>
   <g id="patch_21">
    <path d="M 377.968049 170.122421 
Q 397.18814 148.314977 415.299364 127.765671 
" style="fill: none; stroke-dasharray: 5.55,2.4; stroke-dashoffset: 0; stroke: #ff0000; stroke-width: 1.5; stroke-linecap: round"/>
    <path d="M 409.910578 129.947638 
L 415.299364 127.765671 
L 413.811666 133.385881 
" style="fill: none; stroke-dasharray: 5.55,2.4; stroke-dashoffset: 0; stroke: #ff0000; stroke-width: 1.5; stroke-linecap: round"/>
   </g>
   <g id="text_24">
    <!-- 1.3$\times$ Speedup -->
    <g style="fill: #ff0000" transform="translate(366.970499 167.167883) rotate(-48) scale(0.12 -0.12)">
     <use xlink:href="#TimesNewRomanPS-BoldMT-31" transform="translate(0 0.28125)"/>
     <use xlink:href="#TimesNewRomanPS-BoldMT-2e" transform="translate(50 0.28125)"/>
     <use xlink:href="#TimesNewRomanPS-BoldMT-33" transform="translate(75 0.28125)"/>
     <use xlink:href="#DejaVuSans-d7" transform="translate(125 0.28125)"/>
     <use xlink:href="#TimesNewRomanPS-BoldMT-20" transform="translate(208.789062 0.28125)"/>
     <use xlink:href="#TimesNewRomanPS-BoldMT-53" transform="translate(233.789062 0.28125)"/>
     <use xlink:href="#TimesNewRomanPS-BoldMT-70" transform="translate(289.404297 0.28125)"/>
     <use xlink:href="#TimesNewRomanPS-BoldMT-65" transform="translate(345.019531 0.28125)"/>
     <use xlink:href="#TimesNewRomanPS-BoldMT-65" transform="translate(389.404297 0.28125)"/>
     <use xlink:href="#TimesNewRomanPS-BoldMT-64" transform="translate(433.789062 0.28125)"/>
     <use xlink:href="#TimesNewRomanPS-BoldMT-75" transform="translate(489.404297 0.28125)"/>
     <use xlink:href="#TimesNewRomanPS-BoldMT-70" transform="translate(545.019531 0.28125)"/>
    </g>
   </g>
   <g id="legend_3">
    <g id="patch_22">
     <path d="M 327.825 50.705938 
L 415.66 50.705938 
Q 417.86 50.705938 417.86 48.505938 
L 417.86 18.5 
Q 417.86 16.3 415.66 16.3 
L 327.825 16.3 
Q 325.625 16.3 325.625 18.5 
L 325.625 48.505938 
Q 325.625 50.705938 327.825 50.705938 
z
" style="fill: #ffffff; opacity: 0.8; stroke: #cccccc; stroke-linejoin: miter"/>
    </g>
    <g id="PathCollection_11">
     <g>
      <use xlink:href="#m4854515810" x="332.775" y="25.5125" style="fill: #1f77b4; stroke: #000000; stroke-width: 0.5"/>
     </g>
    </g>
    <g id="text_25">
     <!-- YOLO-Worldv2 -->
     <g transform="translate(341.025 28.4) scale(0.11 -0.11)">
      <use xlink:href="#TimesNewRomanPSMT-59"/>
      <use xlink:href="#TimesNewRomanPSMT-4f" x="72.216797"/>
      <use xlink:href="#TimesNewRomanPSMT-4c" x="144.433594"/>
      <use xlink:href="#TimesNewRomanPSMT-4f" x="205.517578"/>
      <use xlink:href="#TimesNewRomanPSMT-2d" x="277.734375"/>
      <use xlink:href="#TimesNewRomanPSMT-57" x="311.035156"/>
      <use xlink:href="#TimesNewRomanPSMT-6f" x="397.419922"/>
      <use xlink:href="#TimesNewRomanPSMT-72" x="447.419922"/>
      <use xlink:href="#TimesNewRomanPSMT-6c" x="480.720703"/>
      <use xlink:href="#TimesNewRomanPSMT-64" x="508.503906"/>
      <use xlink:href="#TimesNewRomanPSMT-76" x="558.503906"/>
      <use xlink:href="#TimesNewRomanPSMT-32" x="608.503906"/>
     </g>
    </g>
    <g id="PathCollection_12">
     <g>
      <use xlink:href="#ma09f970399" x="332.775" y="41.065469" style="fill: #ff7f0e; stroke: #000000; stroke-width: 0.5"/>
     </g>
    </g>
    <g id="text_26">
     <!-- YOLOE (Ours) -->
     <g transform="translate(341.025 43.952969) scale(0.11 -0.11)">
      <use xlink:href="#TimesNewRomanPSMT-59"/>
      <use xlink:href="#TimesNewRomanPSMT-4f" x="72.216797"/>
      <use xlink:href="#TimesNewRomanPSMT-4c" x="144.433594"/>
      <use xlink:href="#TimesNewRomanPSMT-4f" x="205.517578"/>
      <use xlink:href="#TimesNewRomanPSMT-45" x="277.734375"/>
      <use xlink:href="#TimesNewRomanPSMT-20" x="338.818359"/>
      <use xlink:href="#TimesNewRomanPSMT-28" x="363.818359"/>
      <use xlink:href="#TimesNewRomanPSMT-4f" x="397.119141"/>
      <use xlink:href="#TimesNewRomanPSMT-75" x="469.335938"/>
      <use xlink:href="#TimesNewRomanPSMT-72" x="519.335938"/>
      <use xlink:href="#TimesNewRomanPSMT-73" x="552.636719"/>
      <use xlink:href="#TimesNewRomanPSMT-29" x="591.552734"/>
     </g>
    </g>
   </g>
  </g>
 </g>
 <defs>
  <clipPath id="pf34c1ab278">
   <rect x="51.84" y="10.8" width="123.84" height="168.48"/>
  </clipPath>
  <clipPath id="p65267eeb43">
   <rect x="175.68" y="10.8" width="123.84" height="168.48"/>
  </clipPath>
  <clipPath id="p8e4f02908c">
   <rect x="299.52" y="10.8" width="123.84" height="168.48"/>
  </clipPath>
 </defs>
</svg>
